<svg width="659" height="484" viewBox="0 0 659 484" fill="none" xmlns="http://www.w3.org/2000/svg">
<path opacity="0.2" fill-rule="evenodd" clip-rule="evenodd" d="M620.192 484C644.666 437.964 658.533 385.43 658.533 329.657C658.533 147.808 511.115 0.390137 329.266 0.390137C147.418 0.390137 0 147.808 0 329.657C0 385.43 13.8669 437.964 38.341 484H620.192Z" fill="url(#paint0_linear_7080_71)"/>
<path d="M181 396.751C181 397.441 180.44 398 179.749 398L179.532 398C178.842 398 178.282 397.441 178.282 396.751L178.282 396.535C178.282 395.845 178.842 395.286 179.532 395.286L179.749 395.286C180.44 395.286 181 395.845 181 396.535L181 396.751Z" fill="url(#paint1_linear_7080_71)"/>
<path d="M137.854 396.751C137.854 397.441 137.294 398 136.604 398L136.387 398C135.696 398 135.136 397.441 135.136 396.751L135.136 396.535C135.136 395.845 135.696 395.286 136.387 395.286L136.604 395.286C137.294 395.286 137.854 395.845 137.854 396.535L137.854 396.751Z" fill="url(#paint2_linear_7080_71)"/>
<path d="M93.4579 398C94.1485 398 94.7084 397.441 94.7084 396.751L94.7084 396.535C94.7084 395.845 94.1485 395.286 93.4579 395.286L93.2409 395.286C92.5503 395.286 91.9905 395.845 91.9905 396.535L91.9905 396.751C91.9905 397.441 92.5503 398 93.2409 398L93.4579 398Z" fill="url(#paint3_linear_7080_71)"/>
<path d="M181 309.894C181 310.584 180.44 311.143 179.75 311.143L179.533 311.143C178.842 311.143 178.282 310.584 178.282 309.894L178.282 309.678C178.282 308.988 178.842 308.429 179.533 308.429L179.75 308.429C180.44 308.429 181 308.988 181 309.678L181 309.894Z" fill="url(#paint4_linear_7080_71)"/>
<path d="M136.604 311.143C137.294 311.143 137.854 310.584 137.854 309.894L137.854 309.678C137.854 308.988 137.294 308.429 136.604 308.429L136.387 308.429C135.696 308.429 135.136 308.988 135.136 309.678L135.136 309.894C135.136 310.584 135.696 311.143 136.387 311.143L136.604 311.143Z" fill="url(#paint5_linear_7080_71)"/>
<path d="M94.7086 309.894C94.7086 310.584 94.1487 311.143 93.4581 311.143L93.2412 311.143C92.5505 311.143 91.9907 310.584 91.9907 309.894L91.9907 309.678C91.9907 308.988 92.5505 308.429 93.2412 308.429L93.4581 308.429C94.1487 308.429 94.7086 308.988 94.7086 309.678L94.7086 309.894Z" fill="url(#paint6_linear_7080_71)"/>
<path d="M179.75 369.047C180.44 369.047 181 368.488 181 367.799L181 367.582C181 366.892 180.44 366.333 179.75 366.333L179.533 366.333C178.842 366.333 178.282 366.892 178.282 367.582L178.282 367.799C178.282 368.488 178.842 369.047 179.533 369.047L179.75 369.047Z" fill="url(#paint7_linear_7080_71)"/>
<path d="M137.854 367.799C137.854 368.488 137.294 369.047 136.604 369.047L136.387 369.047C135.696 369.047 135.136 368.488 135.136 367.799L135.136 367.582C135.136 366.892 135.696 366.333 136.387 366.333L136.604 366.333C137.294 366.333 137.854 366.892 137.854 367.582L137.854 367.799Z" fill="url(#paint8_linear_7080_71)"/>
<path d="M93.4581 369.047C94.1487 369.047 94.7086 368.488 94.7086 367.799L94.7086 367.582C94.7086 366.892 94.1487 366.333 93.4581 366.333L93.2412 366.333C92.5505 366.333 91.9907 366.892 91.9907 367.582L91.9907 367.799C91.9907 368.488 92.5505 369.047 93.2412 369.047L93.4581 369.047Z" fill="url(#paint9_linear_7080_71)"/>
<path d="M181 280.942C181 281.632 180.44 282.191 179.75 282.191L179.533 282.191C178.842 282.191 178.282 281.632 178.282 280.942L178.282 280.725C178.282 280.036 178.842 279.477 179.533 279.477L179.75 279.477C180.44 279.477 181 280.036 181 280.725L181 280.942Z" fill="url(#paint10_linear_7080_71)"/>
<path d="M136.604 282.191C137.294 282.191 137.854 281.632 137.854 280.942L137.854 280.725C137.854 280.036 137.294 279.477 136.604 279.477L136.387 279.477C135.696 279.477 135.136 280.036 135.136 280.725L135.136 280.942C135.136 281.632 135.696 282.191 136.387 282.191L136.604 282.191Z" fill="url(#paint11_linear_7080_71)"/>
<path d="M94.7086 280.942C94.7086 281.632 94.1487 282.191 93.4581 282.191L93.2412 282.191C92.5505 282.191 91.9907 281.632 91.9907 280.942L91.9907 280.725C91.9907 280.036 92.5505 279.477 93.2412 279.477L93.4581 279.477C94.1487 279.477 94.7086 280.036 94.7086 280.725L94.7086 280.942Z" fill="url(#paint12_linear_7080_71)"/>
<path d="M179.75 340.095C180.44 340.095 181 339.536 181 338.846L181 338.63C181 337.94 180.44 337.381 179.75 337.381L179.533 337.381C178.842 337.381 178.282 337.94 178.282 338.63L178.282 338.846C178.282 339.536 178.842 340.095 179.533 340.095L179.75 340.095Z" fill="url(#paint13_linear_7080_71)"/>
<path d="M137.854 338.846C137.854 339.536 137.294 340.095 136.604 340.095L136.387 340.095C135.696 340.095 135.136 339.536 135.136 338.846L135.136 338.63C135.136 337.94 135.696 337.381 136.387 337.381L136.604 337.381C137.294 337.381 137.854 337.94 137.854 338.63L137.854 338.846Z" fill="url(#paint14_linear_7080_71)"/>
<path d="M93.4581 340.095C94.1487 340.095 94.7086 339.536 94.7086 338.846L94.7086 338.63C94.7086 337.94 94.1487 337.381 93.4581 337.381L93.2412 337.381C92.5505 337.381 91.9907 337.94 91.9907 338.63L91.9907 338.846C91.9907 339.536 92.5505 340.095 93.2412 340.095L93.4581 340.095Z" fill="url(#paint15_linear_7080_71)"/>
<path d="M179.75 383.524C180.44 383.524 181 382.965 181 382.275L181 382.058C181 381.369 180.44 380.81 179.75 380.81L179.533 380.81C178.842 380.81 178.282 381.369 178.282 382.058L178.282 382.275C178.282 382.965 178.842 383.524 179.533 383.524L179.75 383.524Z" fill="url(#paint16_linear_7080_71)"/>
<path d="M137.854 382.275C137.854 382.965 137.294 383.524 136.604 383.524L136.387 383.524C135.696 383.524 135.136 382.965 135.136 382.275L135.136 382.058C135.136 381.369 135.696 380.81 136.387 380.81L136.604 380.81C137.294 380.81 137.854 381.369 137.854 382.058L137.854 382.275Z" fill="url(#paint17_linear_7080_71)"/>
<path d="M93.4581 383.524C94.1487 383.524 94.7086 382.965 94.7086 382.275L94.7086 382.058C94.7086 381.369 94.1487 380.81 93.4581 380.81L93.2412 380.81C92.5505 380.81 91.9907 381.369 91.9907 382.058L91.9907 382.275C91.9907 382.965 92.5505 383.524 93.2412 383.524L93.4581 383.524Z" fill="url(#paint18_linear_7080_71)"/>
<path d="M181 295.418C181 296.108 180.44 296.667 179.75 296.667L179.533 296.667C178.842 296.667 178.282 296.108 178.282 295.418L178.282 295.201C178.282 294.512 178.842 293.953 179.533 293.953L179.75 293.953C180.44 293.953 181 294.512 181 295.201L181 295.418Z" fill="url(#paint19_linear_7080_71)"/>
<path d="M136.604 296.667C137.294 296.667 137.854 296.108 137.854 295.418L137.854 295.201C137.854 294.512 137.294 293.953 136.604 293.953L136.387 293.953C135.696 293.953 135.136 294.512 135.136 295.201L135.136 295.418C135.136 296.108 135.696 296.667 136.387 296.667L136.604 296.667Z" fill="url(#paint20_linear_7080_71)"/>
<path d="M94.7086 295.418C94.7086 296.108 94.1487 296.667 93.4581 296.667L93.2412 296.667C92.5505 296.667 91.9907 296.108 91.9907 295.418L91.9907 295.201C91.9907 294.512 92.5505 293.953 93.2412 293.953L93.4581 293.953C94.1487 293.953 94.7086 294.512 94.7086 295.201L94.7086 295.418Z" fill="url(#paint21_linear_7080_71)"/>
<path d="M179.75 354.572C180.44 354.572 181 354.013 181 353.323L181 353.106C181 352.417 180.44 351.857 179.75 351.857L179.533 351.857C178.842 351.857 178.282 352.417 178.282 353.106L178.282 353.323C178.282 354.013 178.842 354.572 179.533 354.572L179.75 354.572Z" fill="url(#paint22_linear_7080_71)"/>
<path d="M137.854 353.323C137.854 354.013 137.294 354.572 136.604 354.572L136.387 354.572C135.696 354.572 135.136 354.013 135.136 353.323L135.136 353.106C135.136 352.417 135.696 351.857 136.387 351.857L136.604 351.857C137.294 351.857 137.854 352.417 137.854 353.106L137.854 353.323Z" fill="url(#paint23_linear_7080_71)"/>
<path d="M93.4581 354.572C94.1487 354.572 94.7086 354.013 94.7086 353.323L94.7086 353.106C94.7086 352.417 94.1487 351.857 93.4581 351.857L93.2412 351.857C92.5505 351.857 91.9907 352.417 91.9907 353.106L91.9907 353.323C91.9907 354.013 92.5505 354.572 93.2412 354.572L93.4581 354.572Z" fill="url(#paint24_linear_7080_71)"/>
<path d="M181 266.465C181 267.155 180.44 267.714 179.75 267.714L179.533 267.714C178.842 267.714 178.282 267.155 178.282 266.465L178.282 266.249C178.282 265.559 178.842 265 179.533 265L179.75 265C180.44 265 181 265.559 181 266.249L181 266.465Z" fill="url(#paint25_linear_7080_71)"/>
<path d="M136.604 267.714C137.294 267.714 137.854 267.155 137.854 266.465L137.854 266.249C137.854 265.559 137.294 265 136.604 265L136.387 265C135.696 265 135.136 265.559 135.136 266.249L135.136 266.465C135.136 267.155 135.696 267.714 136.387 267.714L136.604 267.714Z" fill="url(#paint26_linear_7080_71)"/>
<path d="M94.7086 266.465C94.7086 267.155 94.1487 267.714 93.4581 267.714L93.2412 267.714C92.5505 267.714 91.9907 267.155 91.9907 266.465L91.9907 266.249C91.9907 265.559 92.5505 265 93.2412 265L93.4581 265C94.1487 265 94.7086 265.559 94.7086 266.249L94.7086 266.465Z" fill="url(#paint27_linear_7080_71)"/>
<path d="M179.75 325.619C180.44 325.619 181 325.06 181 324.37L181 324.154C181 323.464 180.44 322.905 179.75 322.905L179.533 322.905C178.842 322.905 178.282 323.464 178.282 324.154L178.282 324.37C178.282 325.06 178.842 325.619 179.533 325.619L179.75 325.619Z" fill="url(#paint28_linear_7080_71)"/>
<path d="M137.854 324.37C137.854 325.06 137.294 325.619 136.604 325.619L136.387 325.619C135.696 325.619 135.136 325.06 135.136 324.37L135.136 324.154C135.136 323.464 135.696 322.905 136.387 322.905L136.604 322.905C137.294 322.905 137.854 323.464 137.854 324.154L137.854 324.37Z" fill="url(#paint29_linear_7080_71)"/>
<path d="M93.4581 325.619C94.1487 325.619 94.7086 325.06 94.7086 324.37L94.7086 324.154C94.7086 323.464 94.1487 322.905 93.4581 322.905L93.2412 322.905C92.5505 322.905 91.9907 323.464 91.9907 324.154L91.9907 324.37C91.9907 325.06 92.5505 325.619 93.2412 325.619L93.4581 325.619Z" fill="url(#paint30_linear_7080_71)"/>
<path d="M150.759 398C151.449 398 152.009 397.441 152.009 396.751L152.009 396.535C152.009 395.845 151.449 395.286 150.759 395.286L150.542 395.286C149.851 395.286 149.291 395.845 149.291 396.535L149.291 396.751C149.291 397.441 149.851 398 150.542 398L150.759 398Z" fill="url(#paint31_linear_7080_71)"/>
<path d="M108.864 396.751C108.864 397.441 108.304 398 107.613 398L107.396 398C106.706 398 106.146 397.441 106.146 396.751L106.146 396.535C106.146 395.845 106.706 395.286 107.396 395.286L107.613 395.286C108.304 395.286 108.864 395.845 108.864 396.535L108.864 396.751Z" fill="url(#paint32_linear_7080_71)"/>
<path d="M64.4674 398C65.158 398 65.7179 397.441 65.7179 396.751L65.7179 396.535C65.7179 395.845 65.158 395.286 64.4674 395.286L64.2505 395.286C63.5598 395.286 63 395.845 63 396.535L63 396.751C63 397.441 63.5598 398 64.2505 398L64.4674 398Z" fill="url(#paint33_linear_7080_71)"/>
<path d="M152.009 309.894C152.009 310.584 151.449 311.143 150.759 311.143L150.542 311.143C149.851 311.143 149.291 310.584 149.291 309.894L149.291 309.678C149.291 308.988 149.851 308.429 150.542 308.429L150.759 308.429C151.449 308.429 152.009 308.988 152.009 309.678L152.009 309.894Z" fill="url(#paint34_linear_7080_71)"/>
<path d="M107.613 311.143C108.304 311.143 108.864 310.584 108.864 309.894L108.864 309.678C108.864 308.988 108.304 308.429 107.613 308.429L107.396 308.429C106.706 308.429 106.146 308.988 106.146 309.678L106.146 309.894C106.146 310.584 106.706 311.143 107.396 311.143L107.613 311.143Z" fill="url(#paint35_linear_7080_71)"/>
<path d="M65.7179 309.894C65.7179 310.584 65.158 311.143 64.4674 311.143L64.2505 311.143C63.5598 311.143 63 310.584 63 309.894L63 309.678C63 308.988 63.5598 308.429 64.2505 308.429L64.4674 308.429C65.158 308.429 65.7179 308.988 65.7179 309.678L65.7179 309.894Z" fill="url(#paint36_linear_7080_71)"/>
<path d="M150.759 369.047C151.449 369.047 152.009 368.488 152.009 367.799L152.009 367.582C152.009 366.892 151.449 366.333 150.759 366.333L150.542 366.333C149.851 366.333 149.291 366.892 149.291 367.582L149.291 367.799C149.291 368.488 149.851 369.047 150.542 369.047L150.759 369.047Z" fill="url(#paint37_linear_7080_71)"/>
<path d="M108.864 367.799C108.864 368.488 108.304 369.047 107.613 369.047L107.396 369.047C106.706 369.047 106.146 368.488 106.146 367.799L106.146 367.582C106.146 366.892 106.706 366.333 107.396 366.333L107.613 366.333C108.304 366.333 108.864 366.892 108.864 367.582L108.864 367.799Z" fill="url(#paint38_linear_7080_71)"/>
<path d="M64.4674 369.047C65.158 369.047 65.7179 368.488 65.7179 367.799L65.7179 367.582C65.7179 366.892 65.158 366.333 64.4674 366.333L64.2505 366.333C63.5598 366.333 63 366.892 63 367.582L63 367.799C63 368.488 63.5598 369.047 64.2505 369.047L64.4674 369.047Z" fill="url(#paint39_linear_7080_71)"/>
<path d="M152.009 280.942C152.009 281.632 151.449 282.191 150.759 282.191L150.542 282.191C149.851 282.191 149.291 281.632 149.291 280.942L149.291 280.725C149.291 280.036 149.851 279.477 150.542 279.477L150.759 279.477C151.449 279.477 152.009 280.036 152.009 280.725L152.009 280.942Z" fill="url(#paint40_linear_7080_71)"/>
<path d="M107.613 282.191C108.304 282.191 108.864 281.632 108.864 280.942L108.864 280.725C108.864 280.036 108.304 279.477 107.613 279.477L107.396 279.477C106.706 279.477 106.146 280.036 106.146 280.725L106.146 280.942C106.146 281.632 106.706 282.191 107.396 282.191L107.613 282.191Z" fill="url(#paint41_linear_7080_71)"/>
<path d="M65.7179 280.942C65.7179 281.632 65.158 282.191 64.4674 282.191L64.2505 282.191C63.5598 282.191 63 281.632 63 280.942L63 280.725C63 280.036 63.5598 279.477 64.2505 279.477L64.4674 279.477C65.158 279.477 65.7179 280.036 65.7179 280.725L65.7179 280.942Z" fill="url(#paint42_linear_7080_71)"/>
<path d="M150.759 340.095C151.449 340.095 152.009 339.536 152.009 338.846L152.009 338.63C152.009 337.94 151.449 337.381 150.759 337.381L150.542 337.381C149.851 337.381 149.291 337.94 149.291 338.63L149.291 338.846C149.291 339.536 149.851 340.095 150.542 340.095L150.759 340.095Z" fill="url(#paint43_linear_7080_71)"/>
<path d="M108.864 338.846C108.864 339.536 108.304 340.095 107.613 340.095L107.396 340.095C106.706 340.095 106.146 339.536 106.146 338.846L106.146 338.63C106.146 337.94 106.706 337.381 107.396 337.381L107.613 337.381C108.304 337.381 108.864 337.94 108.864 338.63L108.864 338.846Z" fill="url(#paint44_linear_7080_71)"/>
<path d="M64.4674 340.095C65.158 340.095 65.7179 339.536 65.7179 338.846L65.7179 338.63C65.7179 337.94 65.158 337.381 64.4674 337.381L64.2505 337.381C63.5598 337.381 63 337.94 63 338.63L63 338.846C63 339.536 63.5598 340.095 64.2505 340.095L64.4674 340.095Z" fill="url(#paint45_linear_7080_71)"/>
<path d="M150.759 383.524C151.449 383.524 152.009 382.965 152.009 382.275L152.009 382.058C152.009 381.369 151.449 380.81 150.759 380.81L150.542 380.81C149.851 380.81 149.291 381.369 149.291 382.058L149.291 382.275C149.291 382.965 149.851 383.524 150.542 383.524L150.759 383.524Z" fill="url(#paint46_linear_7080_71)"/>
<path d="M108.864 382.275C108.864 382.965 108.304 383.524 107.613 383.524L107.396 383.524C106.706 383.524 106.146 382.965 106.146 382.275L106.146 382.058C106.146 381.369 106.706 380.81 107.396 380.81L107.613 380.81C108.304 380.81 108.864 381.369 108.864 382.058L108.864 382.275Z" fill="url(#paint47_linear_7080_71)"/>
<path d="M64.4674 383.524C65.158 383.524 65.7179 382.965 65.7179 382.275L65.7179 382.058C65.7179 381.369 65.158 380.81 64.4674 380.81L64.2505 380.81C63.5598 380.81 63 381.369 63 382.058L63 382.275C63 382.965 63.5598 383.524 64.2505 383.524L64.4674 383.524Z" fill="url(#paint48_linear_7080_71)"/>
<path d="M152.009 295.418C152.009 296.108 151.449 296.667 150.759 296.667L150.542 296.667C149.851 296.667 149.291 296.108 149.291 295.418L149.291 295.201C149.291 294.512 149.851 293.953 150.542 293.953L150.759 293.953C151.449 293.953 152.009 294.512 152.009 295.201L152.009 295.418Z" fill="url(#paint49_linear_7080_71)"/>
<path d="M107.613 296.667C108.304 296.667 108.864 296.108 108.864 295.418L108.864 295.201C108.864 294.512 108.304 293.953 107.613 293.953L107.396 293.953C106.706 293.953 106.146 294.512 106.146 295.201L106.146 295.418C106.146 296.108 106.706 296.667 107.396 296.667L107.613 296.667Z" fill="url(#paint50_linear_7080_71)"/>
<path d="M65.7179 295.418C65.7179 296.108 65.158 296.667 64.4674 296.667L64.2505 296.667C63.5598 296.667 63 296.108 63 295.418L63 295.201C63 294.512 63.5598 293.953 64.2505 293.953L64.4674 293.953C65.158 293.953 65.7179 294.512 65.7179 295.201L65.7179 295.418Z" fill="url(#paint51_linear_7080_71)"/>
<path d="M150.759 354.572C151.449 354.572 152.009 354.013 152.009 353.323L152.009 353.106C152.009 352.417 151.449 351.857 150.759 351.857L150.542 351.857C149.851 351.857 149.291 352.417 149.291 353.106L149.291 353.323C149.291 354.013 149.851 354.572 150.542 354.572L150.759 354.572Z" fill="url(#paint52_linear_7080_71)"/>
<path d="M108.864 353.323C108.864 354.013 108.304 354.572 107.613 354.572L107.396 354.572C106.706 354.572 106.146 354.013 106.146 353.323L106.146 353.106C106.146 352.417 106.706 351.857 107.396 351.857L107.613 351.857C108.304 351.857 108.864 352.417 108.864 353.106L108.864 353.323Z" fill="url(#paint53_linear_7080_71)"/>
<path d="M64.4674 354.572C65.158 354.572 65.7179 354.013 65.7179 353.323L65.7179 353.106C65.7179 352.417 65.158 351.857 64.4674 351.857L64.2505 351.857C63.5598 351.857 63 352.417 63 353.106L63 353.323C63 354.013 63.5598 354.572 64.2505 354.572L64.4674 354.572Z" fill="url(#paint54_linear_7080_71)"/>
<path d="M152.009 266.465C152.009 267.155 151.449 267.714 150.759 267.714L150.542 267.714C149.851 267.714 149.291 267.155 149.291 266.465L149.291 266.249C149.291 265.559 149.851 265 150.542 265L150.759 265C151.449 265 152.009 265.559 152.009 266.249L152.009 266.465Z" fill="url(#paint55_linear_7080_71)"/>
<path d="M107.613 267.714C108.304 267.714 108.864 267.155 108.864 266.465L108.864 266.249C108.864 265.559 108.304 265 107.613 265L107.396 265C106.706 265 106.146 265.559 106.146 266.249L106.146 266.465C106.146 267.155 106.706 267.714 107.396 267.714L107.613 267.714Z" fill="url(#paint56_linear_7080_71)"/>
<path d="M65.7179 266.465C65.7179 267.155 65.158 267.714 64.4674 267.714L64.2505 267.714C63.5598 267.714 63 267.155 63 266.465L63 266.249C63 265.559 63.5598 265 64.2505 265L64.4674 265C65.158 265 65.7179 265.559 65.7179 266.249L65.7179 266.465Z" fill="url(#paint57_linear_7080_71)"/>
<path d="M150.759 325.619C151.449 325.619 152.009 325.06 152.009 324.37L152.009 324.154C152.009 323.464 151.449 322.905 150.759 322.905L150.542 322.905C149.851 322.905 149.291 323.464 149.291 324.154L149.291 324.37C149.291 325.06 149.851 325.619 150.542 325.619L150.759 325.619Z" fill="url(#paint58_linear_7080_71)"/>
<path d="M108.864 324.37C108.864 325.06 108.304 325.619 107.613 325.619L107.396 325.619C106.706 325.619 106.146 325.06 106.146 324.37L106.146 324.154C106.146 323.464 106.706 322.905 107.396 322.905L107.613 322.905C108.304 322.905 108.864 323.464 108.864 324.154L108.864 324.37Z" fill="url(#paint59_linear_7080_71)"/>
<path d="M64.4674 325.619C65.158 325.619 65.7179 325.06 65.7179 324.37L65.7179 324.154C65.7179 323.464 65.158 322.905 64.4674 322.905L64.2505 322.905C63.5598 322.905 63 323.464 63 324.154L63 324.37C63 325.06 63.5598 325.619 64.2505 325.619L64.4674 325.619Z" fill="url(#paint60_linear_7080_71)"/>
<path d="M165.254 398C165.945 398 166.504 397.441 166.504 396.751L166.504 396.535C166.504 395.845 165.945 395.286 165.254 395.286L165.037 395.286C164.346 395.286 163.787 395.845 163.787 396.535L163.787 396.751C163.787 397.441 164.346 398 165.037 398L165.254 398Z" fill="url(#paint61_linear_7080_71)"/>
<path d="M123.359 396.751C123.359 397.441 122.799 398 122.108 398L121.891 398C121.201 398 120.641 397.441 120.641 396.751L120.641 396.535C120.641 395.845 121.201 395.286 121.891 395.286L122.108 395.286C122.799 395.286 123.359 395.845 123.359 396.535L123.359 396.751Z" fill="url(#paint62_linear_7080_71)"/>
<path d="M78.9625 398C79.6532 398 80.213 397.441 80.213 396.751L80.213 396.535C80.213 395.845 79.6532 395.286 78.9625 395.286L78.7456 395.286C78.055 395.286 77.4951 395.845 77.4951 396.535L77.4951 396.751C77.4951 397.441 78.055 398 78.7456 398L78.9625 398Z" fill="url(#paint63_linear_7080_71)"/>
<path d="M166.504 309.894C166.504 310.584 165.945 311.143 165.254 311.143L165.037 311.143C164.346 311.143 163.787 310.584 163.787 309.894L163.787 309.678C163.787 308.988 164.346 308.429 165.037 308.429L165.254 308.429C165.945 308.429 166.504 308.988 166.504 309.678L166.504 309.894Z" fill="url(#paint64_linear_7080_71)"/>
<path d="M122.108 311.143C122.799 311.143 123.359 310.584 123.359 309.894L123.359 309.678C123.359 308.988 122.799 308.429 122.108 308.429L121.891 308.429C121.201 308.429 120.641 308.988 120.641 309.678L120.641 309.894C120.641 310.584 121.201 311.143 121.891 311.143L122.108 311.143Z" fill="url(#paint65_linear_7080_71)"/>
<path d="M80.213 309.894C80.213 310.584 79.6532 311.143 78.9625 311.143L78.7456 311.143C78.055 311.143 77.4951 310.584 77.4951 309.894L77.4951 309.678C77.4951 308.988 78.055 308.429 78.7456 308.429L78.9625 308.429C79.6532 308.429 80.213 308.988 80.213 309.678L80.213 309.894Z" fill="url(#paint66_linear_7080_71)"/>
<path d="M165.254 369.047C165.945 369.047 166.504 368.488 166.504 367.799L166.504 367.582C166.504 366.892 165.945 366.333 165.254 366.333L165.037 366.333C164.346 366.333 163.787 366.892 163.787 367.582L163.787 367.799C163.787 368.488 164.346 369.047 165.037 369.047L165.254 369.047Z" fill="url(#paint67_linear_7080_71)"/>
<path d="M123.359 367.799C123.359 368.488 122.799 369.047 122.108 369.047L121.891 369.047C121.201 369.047 120.641 368.488 120.641 367.799L120.641 367.582C120.641 366.892 121.201 366.333 121.891 366.333L122.108 366.333C122.799 366.333 123.359 366.892 123.359 367.582L123.359 367.799Z" fill="url(#paint68_linear_7080_71)"/>
<path d="M78.9625 369.047C79.6532 369.047 80.213 368.488 80.213 367.799L80.213 367.582C80.213 366.892 79.6532 366.333 78.9625 366.333L78.7456 366.333C78.055 366.333 77.4951 366.892 77.4951 367.582L77.4951 367.799C77.4951 368.488 78.055 369.047 78.7456 369.047L78.9625 369.047Z" fill="url(#paint69_linear_7080_71)"/>
<path d="M166.504 280.942C166.504 281.632 165.945 282.191 165.254 282.191L165.037 282.191C164.346 282.191 163.787 281.632 163.787 280.942L163.787 280.725C163.787 280.036 164.346 279.477 165.037 279.477L165.254 279.477C165.945 279.477 166.504 280.036 166.504 280.725L166.504 280.942Z" fill="url(#paint70_linear_7080_71)"/>
<path d="M122.108 282.191C122.799 282.191 123.359 281.632 123.359 280.942L123.359 280.725C123.359 280.036 122.799 279.477 122.108 279.477L121.891 279.477C121.201 279.477 120.641 280.036 120.641 280.725L120.641 280.942C120.641 281.632 121.201 282.191 121.891 282.191L122.108 282.191Z" fill="url(#paint71_linear_7080_71)"/>
<path d="M80.213 280.942C80.213 281.632 79.6532 282.191 78.9625 282.191L78.7456 282.191C78.055 282.191 77.4951 281.632 77.4951 280.942L77.4951 280.725C77.4951 280.036 78.055 279.477 78.7456 279.477L78.9625 279.477C79.6532 279.477 80.213 280.036 80.213 280.725L80.213 280.942Z" fill="url(#paint72_linear_7080_71)"/>
<path d="M165.254 340.095C165.945 340.095 166.504 339.536 166.504 338.846L166.504 338.63C166.504 337.94 165.945 337.381 165.254 337.381L165.037 337.381C164.346 337.381 163.787 337.94 163.787 338.63L163.787 338.846C163.787 339.536 164.346 340.095 165.037 340.095L165.254 340.095Z" fill="url(#paint73_linear_7080_71)"/>
<path d="M123.359 338.846C123.359 339.536 122.799 340.095 122.108 340.095L121.891 340.095C121.201 340.095 120.641 339.536 120.641 338.846L120.641 338.63C120.641 337.94 121.201 337.381 121.891 337.381L122.108 337.381C122.799 337.381 123.359 337.94 123.359 338.63L123.359 338.846Z" fill="url(#paint74_linear_7080_71)"/>
<path d="M78.9625 340.095C79.6532 340.095 80.213 339.536 80.213 338.846L80.213 338.63C80.213 337.94 79.6532 337.381 78.9625 337.381L78.7456 337.381C78.055 337.381 77.4951 337.94 77.4951 338.63L77.4951 338.846C77.4951 339.536 78.055 340.095 78.7456 340.095L78.9625 340.095Z" fill="url(#paint75_linear_7080_71)"/>
<path d="M165.254 383.524C165.945 383.524 166.504 382.965 166.504 382.275L166.504 382.058C166.504 381.369 165.945 380.81 165.254 380.81L165.037 380.81C164.346 380.81 163.787 381.369 163.787 382.058L163.787 382.275C163.787 382.965 164.346 383.524 165.037 383.524L165.254 383.524Z" fill="url(#paint76_linear_7080_71)"/>
<path d="M123.359 382.275C123.359 382.965 122.799 383.524 122.108 383.524L121.891 383.524C121.201 383.524 120.641 382.965 120.641 382.275L120.641 382.058C120.641 381.369 121.201 380.81 121.891 380.81L122.108 380.81C122.799 380.81 123.359 381.369 123.359 382.058L123.359 382.275Z" fill="url(#paint77_linear_7080_71)"/>
<path d="M78.9625 383.524C79.6532 383.524 80.213 382.965 80.213 382.275L80.213 382.058C80.213 381.369 79.6532 380.81 78.9625 380.81L78.7456 380.81C78.055 380.81 77.4951 381.369 77.4951 382.058L77.4951 382.275C77.4951 382.965 78.055 383.524 78.7456 383.524L78.9625 383.524Z" fill="url(#paint78_linear_7080_71)"/>
<path d="M166.504 295.418C166.504 296.108 165.945 296.667 165.254 296.667L165.037 296.667C164.346 296.667 163.787 296.108 163.787 295.418L163.787 295.201C163.787 294.512 164.346 293.953 165.037 293.953L165.254 293.953C165.945 293.953 166.504 294.512 166.504 295.201L166.504 295.418Z" fill="url(#paint79_linear_7080_71)"/>
<path d="M122.108 296.667C122.799 296.667 123.359 296.108 123.359 295.418L123.359 295.201C123.359 294.512 122.799 293.953 122.108 293.953L121.891 293.953C121.201 293.953 120.641 294.512 120.641 295.201L120.641 295.418C120.641 296.108 121.201 296.667 121.891 296.667L122.108 296.667Z" fill="url(#paint80_linear_7080_71)"/>
<path d="M80.213 295.418C80.213 296.108 79.6532 296.667 78.9625 296.667L78.7456 296.667C78.055 296.667 77.4951 296.108 77.4951 295.418L77.4951 295.201C77.4951 294.512 78.055 293.953 78.7456 293.953L78.9625 293.953C79.6532 293.953 80.213 294.512 80.213 295.201L80.213 295.418Z" fill="url(#paint81_linear_7080_71)"/>
<path d="M165.254 354.572C165.945 354.572 166.504 354.013 166.504 353.323L166.504 353.106C166.504 352.417 165.945 351.857 165.254 351.857L165.037 351.857C164.346 351.857 163.787 352.417 163.787 353.106L163.787 353.323C163.787 354.013 164.346 354.572 165.037 354.572L165.254 354.572Z" fill="url(#paint82_linear_7080_71)"/>
<path d="M123.359 353.323C123.359 354.013 122.799 354.572 122.108 354.572L121.891 354.572C121.201 354.572 120.641 354.013 120.641 353.323L120.641 353.106C120.641 352.417 121.201 351.857 121.891 351.857L122.108 351.857C122.799 351.857 123.359 352.417 123.359 353.106L123.359 353.323Z" fill="url(#paint83_linear_7080_71)"/>
<path d="M78.9625 354.572C79.6532 354.572 80.213 354.013 80.213 353.323L80.213 353.106C80.213 352.417 79.6532 351.857 78.9625 351.857L78.7456 351.857C78.055 351.857 77.4951 352.417 77.4951 353.106L77.4951 353.323C77.4951 354.013 78.055 354.572 78.7456 354.572L78.9625 354.572Z" fill="url(#paint84_linear_7080_71)"/>
<path d="M166.504 266.465C166.504 267.155 165.945 267.714 165.254 267.714L165.037 267.714C164.346 267.714 163.787 267.155 163.787 266.465L163.787 266.249C163.787 265.559 164.346 265 165.037 265L165.254 265C165.945 265 166.504 265.559 166.504 266.249L166.504 266.465Z" fill="url(#paint85_linear_7080_71)"/>
<path d="M122.108 267.714C122.799 267.714 123.359 267.155 123.359 266.465L123.359 266.249C123.359 265.559 122.799 265 122.108 265L121.891 265C121.201 265 120.641 265.559 120.641 266.249L120.641 266.465C120.641 267.155 121.201 267.714 121.891 267.714L122.108 267.714Z" fill="url(#paint86_linear_7080_71)"/>
<path d="M80.213 266.465C80.213 267.155 79.6532 267.714 78.9625 267.714L78.7456 267.714C78.055 267.714 77.4951 267.155 77.4951 266.465L77.4951 266.249C77.4951 265.559 78.055 265 78.7456 265L78.9625 265C79.6532 265 80.213 265.559 80.213 266.249L80.213 266.465Z" fill="url(#paint87_linear_7080_71)"/>
<path d="M165.254 325.619C165.945 325.619 166.504 325.06 166.504 324.37L166.504 324.154C166.504 323.464 165.945 322.905 165.254 322.905L165.037 322.905C164.346 322.905 163.787 323.464 163.787 324.154L163.787 324.37C163.787 325.06 164.346 325.619 165.037 325.619L165.254 325.619Z" fill="url(#paint88_linear_7080_71)"/>
<path d="M123.359 324.37C123.359 325.06 122.799 325.619 122.108 325.619L121.891 325.619C121.201 325.619 120.641 325.06 120.641 324.37L120.641 324.154C120.641 323.464 121.201 322.905 121.891 322.905L122.108 322.905C122.799 322.905 123.359 323.464 123.359 324.154L123.359 324.37Z" fill="url(#paint89_linear_7080_71)"/>
<path d="M78.9625 325.619C79.6532 325.619 80.213 325.06 80.213 324.37L80.213 324.154C80.213 323.464 79.6532 322.905 78.9625 322.905L78.7456 322.905C78.055 322.905 77.4951 323.464 77.4951 324.154L77.4951 324.37C77.4951 325.06 78.055 325.619 78.7456 325.619L78.9625 325.619Z" fill="url(#paint90_linear_7080_71)"/>
<path d="M510 237.742C510 238.437 509.44 239 508.749 239L508.532 239C507.842 239 507.282 238.437 507.282 237.742L507.282 237.524C507.282 236.829 507.842 236.265 508.532 236.265L508.749 236.265C509.44 236.265 510 236.829 510 237.524L510 237.742Z" fill="url(#paint91_linear_7080_71)"/>
<path d="M466.854 237.742C466.854 238.437 466.294 239 465.604 239L465.387 239C464.696 239 464.136 238.437 464.136 237.742L464.136 237.524C464.136 236.829 464.696 236.265 465.387 236.265L465.604 236.265C466.294 236.265 466.854 236.829 466.854 237.524L466.854 237.742Z" fill="url(#paint92_linear_7080_71)"/>
<path d="M422.458 239C423.148 239 423.708 238.437 423.708 237.742L423.708 237.524C423.708 236.829 423.148 236.265 422.458 236.265L422.241 236.265C421.55 236.265 420.99 236.829 420.99 237.524L420.99 237.742C420.99 238.437 421.55 239 422.241 239L422.458 239Z" fill="url(#paint93_linear_7080_71)"/>
<path d="M510 150.232C510 150.927 509.44 151.49 508.75 151.49L508.533 151.49C507.842 151.49 507.282 150.927 507.282 150.232L507.282 150.013C507.282 149.319 507.842 148.755 508.533 148.755L508.75 148.755C509.44 148.755 510 149.319 510 150.013L510 150.232Z" fill="url(#paint94_linear_7080_71)"/>
<path d="M465.604 151.49C466.294 151.49 466.854 150.927 466.854 150.232L466.854 150.013C466.854 149.319 466.294 148.755 465.604 148.755L465.387 148.755C464.696 148.755 464.136 149.319 464.136 150.013L464.136 150.232C464.136 150.927 464.696 151.49 465.387 151.49L465.604 151.49Z" fill="url(#paint95_linear_7080_71)"/>
<path d="M423.709 150.232C423.709 150.927 423.149 151.49 422.458 151.49L422.241 151.49C421.551 151.49 420.991 150.927 420.991 150.232L420.991 150.013C420.991 149.319 421.551 148.755 422.241 148.755L422.458 148.755C423.149 148.755 423.709 149.319 423.709 150.013L423.709 150.232Z" fill="url(#paint96_linear_7080_71)"/>
<path d="M508.75 209.83C509.44 209.83 510 209.266 510 208.571L510 208.353C510 207.658 509.44 207.095 508.75 207.095L508.533 207.095C507.842 207.095 507.282 207.658 507.282 208.353L507.282 208.571C507.282 209.266 507.842 209.83 508.533 209.83L508.75 209.83Z" fill="url(#paint97_linear_7080_71)"/>
<path d="M466.854 208.571C466.854 209.266 466.294 209.83 465.604 209.83L465.387 209.83C464.696 209.83 464.136 209.266 464.136 208.571L464.136 208.353C464.136 207.658 464.696 207.095 465.387 207.095L465.604 207.095C466.294 207.095 466.854 207.658 466.854 208.353L466.854 208.571Z" fill="url(#paint98_linear_7080_71)"/>
<path d="M422.458 209.83C423.149 209.83 423.709 209.266 423.709 208.571L423.709 208.353C423.709 207.658 423.149 207.095 422.458 207.095L422.241 207.095C421.551 207.095 420.991 207.658 420.991 208.353L420.991 208.571C420.991 209.266 421.551 209.83 422.241 209.83L422.458 209.83Z" fill="url(#paint99_linear_7080_71)"/>
<path d="M510 121.062C510 121.757 509.44 122.32 508.75 122.32L508.533 122.32C507.842 122.32 507.282 121.757 507.282 121.062L507.282 120.844C507.282 120.149 507.842 119.585 508.533 119.585L508.75 119.585C509.44 119.585 510 120.149 510 120.844L510 121.062Z" fill="url(#paint100_linear_7080_71)"/>
<path d="M465.604 122.32C466.294 122.32 466.854 121.757 466.854 121.062L466.854 120.844C466.854 120.149 466.294 119.585 465.604 119.585L465.387 119.585C464.696 119.585 464.136 120.149 464.136 120.844L464.136 121.062C464.136 121.757 464.696 122.32 465.387 122.32L465.604 122.32Z" fill="url(#paint101_linear_7080_71)"/>
<path d="M423.709 121.062C423.709 121.757 423.149 122.32 422.458 122.32L422.241 122.32C421.551 122.32 420.991 121.757 420.991 121.062L420.991 120.844C420.991 120.149 421.551 119.585 422.241 119.585L422.458 119.585C423.149 119.585 423.709 120.149 423.709 120.844L423.709 121.062Z" fill="url(#paint102_linear_7080_71)"/>
<path d="M508.75 180.66C509.44 180.66 510 180.097 510 179.402L510 179.183C510 178.488 509.44 177.925 508.75 177.925L508.533 177.925C507.842 177.925 507.282 178.488 507.282 179.183L507.282 179.402C507.282 180.097 507.842 180.66 508.533 180.66L508.75 180.66Z" fill="url(#paint103_linear_7080_71)"/>
<path d="M466.854 179.402C466.854 180.097 466.294 180.66 465.604 180.66L465.387 180.66C464.696 180.66 464.136 180.097 464.136 179.402L464.136 179.183C464.136 178.488 464.696 177.925 465.387 177.925L465.604 177.925C466.294 177.925 466.854 178.488 466.854 179.183L466.854 179.402Z" fill="url(#paint104_linear_7080_71)"/>
<path d="M422.458 180.66C423.149 180.66 423.709 180.096 423.709 179.402L423.709 179.183C423.709 178.488 423.149 177.925 422.458 177.925L422.241 177.925C421.551 177.925 420.991 178.488 420.991 179.183L420.991 179.402C420.991 180.096 421.551 180.66 422.241 180.66L422.458 180.66Z" fill="url(#paint105_linear_7080_71)"/>
<path d="M508.75 224.415C509.44 224.415 510 223.852 510 223.157L510 222.939C510 222.244 509.44 221.68 508.75 221.68L508.533 221.68C507.842 221.68 507.282 222.244 507.282 222.939L507.282 223.157C507.282 223.852 507.842 224.415 508.533 224.415L508.75 224.415Z" fill="url(#paint106_linear_7080_71)"/>
<path d="M466.854 223.157C466.854 223.852 466.294 224.415 465.604 224.415L465.387 224.415C464.696 224.415 464.136 223.852 464.136 223.157L464.136 222.939C464.136 222.244 464.696 221.68 465.387 221.68L465.604 221.68C466.294 221.68 466.854 222.244 466.854 222.939L466.854 223.157Z" fill="url(#paint107_linear_7080_71)"/>
<path d="M422.458 224.415C423.149 224.415 423.709 223.852 423.709 223.157L423.709 222.939C423.709 222.244 423.149 221.68 422.458 221.68L422.241 221.68C421.551 221.68 420.991 222.244 420.991 222.939L420.991 223.157C420.991 223.852 421.551 224.415 422.241 224.415L422.458 224.415Z" fill="url(#paint108_linear_7080_71)"/>
<path d="M510 135.647C510 136.342 509.44 136.905 508.75 136.905L508.533 136.905C507.842 136.905 507.282 136.342 507.282 135.647L507.282 135.429C507.282 134.734 507.842 134.17 508.533 134.17L508.75 134.17C509.44 134.17 510 134.734 510 135.429L510 135.647Z" fill="url(#paint109_linear_7080_71)"/>
<path d="M465.604 136.905C466.294 136.905 466.854 136.342 466.854 135.647L466.854 135.429C466.854 134.734 466.294 134.17 465.604 134.17L465.387 134.17C464.696 134.17 464.136 134.734 464.136 135.429L464.136 135.647C464.136 136.342 464.696 136.905 465.387 136.905L465.604 136.905Z" fill="url(#paint110_linear_7080_71)"/>
<path d="M423.709 135.647C423.709 136.342 423.149 136.905 422.458 136.905L422.241 136.905C421.551 136.905 420.991 136.342 420.991 135.647L420.991 135.429C420.991 134.734 421.551 134.17 422.241 134.17L422.458 134.17C423.149 134.17 423.709 134.734 423.709 135.429L423.709 135.647Z" fill="url(#paint111_linear_7080_71)"/>
<path d="M508.75 195.245C509.44 195.245 510 194.682 510 193.987L510 193.769C510 193.074 509.44 192.51 508.75 192.51L508.533 192.51C507.842 192.51 507.282 193.074 507.282 193.769L507.282 193.987C507.282 194.682 507.842 195.245 508.533 195.245L508.75 195.245Z" fill="url(#paint112_linear_7080_71)"/>
<path d="M466.854 193.987C466.854 194.682 466.294 195.245 465.604 195.245L465.387 195.245C464.696 195.245 464.136 194.682 464.136 193.987L464.136 193.769C464.136 193.074 464.696 192.51 465.387 192.51L465.604 192.51C466.294 192.51 466.854 193.074 466.854 193.769L466.854 193.987Z" fill="url(#paint113_linear_7080_71)"/>
<path d="M422.458 195.245C423.149 195.245 423.709 194.682 423.709 193.987L423.709 193.769C423.709 193.074 423.149 192.51 422.458 192.51L422.241 192.51C421.551 192.51 420.991 193.074 420.991 193.769L420.991 193.987C420.991 194.682 421.551 195.245 422.241 195.245L422.458 195.245Z" fill="url(#paint114_linear_7080_71)"/>
<path d="M510 106.476C510 107.171 509.44 107.735 508.75 107.735L508.533 107.735C507.842 107.735 507.282 107.171 507.282 106.476L507.282 106.258C507.282 105.563 507.842 105 508.533 105L508.75 105C509.44 105 510 105.563 510 106.258L510 106.476Z" fill="url(#paint115_linear_7080_71)"/>
<path d="M465.604 107.735C466.294 107.735 466.854 107.171 466.854 106.476L466.854 106.258C466.854 105.563 466.294 105 465.604 105L465.387 105C464.696 105 464.136 105.563 464.136 106.258L464.136 106.476C464.136 107.171 464.696 107.735 465.387 107.735L465.604 107.735Z" fill="url(#paint116_linear_7080_71)"/>
<path d="M423.709 106.476C423.709 107.171 423.149 107.735 422.458 107.735L422.241 107.735C421.551 107.735 420.991 107.171 420.991 106.476L420.991 106.258C420.991 105.563 421.551 105 422.241 105L422.458 105C423.149 105 423.709 105.563 423.709 106.258L423.709 106.476Z" fill="url(#paint117_linear_7080_71)"/>
<path d="M508.75 166.075C509.44 166.075 510 165.512 510 164.817L510 164.598C510 163.904 509.44 163.34 508.75 163.34L508.533 163.34C507.842 163.34 507.282 163.904 507.282 164.598L507.282 164.817C507.282 165.512 507.842 166.075 508.533 166.075L508.75 166.075Z" fill="url(#paint118_linear_7080_71)"/>
<path d="M466.854 164.817C466.854 165.512 466.294 166.075 465.604 166.075L465.387 166.075C464.696 166.075 464.136 165.512 464.136 164.817L464.136 164.598C464.136 163.904 464.696 163.34 465.387 163.34L465.604 163.34C466.294 163.34 466.854 163.904 466.854 164.598L466.854 164.817Z" fill="url(#paint119_linear_7080_71)"/>
<path d="M422.458 166.075C423.149 166.075 423.709 165.512 423.709 164.817L423.709 164.598C423.709 163.904 423.149 163.34 422.458 163.34L422.241 163.34C421.551 163.34 420.991 163.904 420.991 164.598L420.991 164.817C420.991 165.512 421.551 166.075 422.241 166.075L422.458 166.075Z" fill="url(#paint120_linear_7080_71)"/>
<path d="M479.759 239C480.449 239 481.009 238.437 481.009 237.742L481.009 237.524C481.009 236.829 480.449 236.265 479.759 236.265L479.542 236.265C478.851 236.265 478.291 236.829 478.291 237.524L478.291 237.742C478.291 238.437 478.851 239 479.542 239L479.759 239Z" fill="url(#paint121_linear_7080_71)"/>
<path d="M437.864 237.742C437.864 238.437 437.304 239 436.613 239L436.396 239C435.706 239 435.146 238.437 435.146 237.742L435.146 237.524C435.146 236.829 435.706 236.265 436.396 236.265L436.613 236.265C437.304 236.265 437.864 236.829 437.864 237.524L437.864 237.742Z" fill="url(#paint122_linear_7080_71)"/>
<path d="M393.467 239C394.158 239 394.718 238.437 394.718 237.742L394.718 237.524C394.718 236.829 394.158 236.265 393.467 236.265L393.25 236.265C392.56 236.265 392 236.829 392 237.524L392 237.742C392 238.437 392.56 239 393.25 239L393.467 239Z" fill="url(#paint123_linear_7080_71)"/>
<path d="M481.009 150.232C481.009 150.927 480.449 151.49 479.759 151.49L479.542 151.49C478.851 151.49 478.291 150.927 478.291 150.232L478.291 150.013C478.291 149.319 478.851 148.755 479.542 148.755L479.759 148.755C480.449 148.755 481.009 149.319 481.009 150.013L481.009 150.232Z" fill="url(#paint124_linear_7080_71)"/>
<path d="M436.613 151.49C437.304 151.49 437.864 150.927 437.864 150.232L437.864 150.013C437.864 149.319 437.304 148.755 436.613 148.755L436.396 148.755C435.706 148.755 435.146 149.319 435.146 150.013L435.146 150.232C435.146 150.927 435.706 151.49 436.396 151.49L436.613 151.49Z" fill="url(#paint125_linear_7080_71)"/>
<path d="M394.718 150.232C394.718 150.927 394.158 151.49 393.467 151.49L393.25 151.49C392.56 151.49 392 150.927 392 150.232L392 150.013C392 149.319 392.56 148.755 393.25 148.755L393.467 148.755C394.158 148.755 394.718 149.319 394.718 150.013L394.718 150.232Z" fill="url(#paint126_linear_7080_71)"/>
<path d="M479.759 209.83C480.449 209.83 481.009 209.266 481.009 208.571L481.009 208.353C481.009 207.658 480.449 207.095 479.759 207.095L479.542 207.095C478.851 207.095 478.291 207.658 478.291 208.353L478.291 208.571C478.291 209.266 478.851 209.83 479.542 209.83L479.759 209.83Z" fill="url(#paint127_linear_7080_71)"/>
<path d="M437.864 208.571C437.864 209.266 437.304 209.83 436.613 209.83L436.396 209.83C435.706 209.83 435.146 209.266 435.146 208.571L435.146 208.353C435.146 207.658 435.706 207.095 436.396 207.095L436.613 207.095C437.304 207.095 437.864 207.658 437.864 208.353L437.864 208.571Z" fill="url(#paint128_linear_7080_71)"/>
<path d="M393.467 209.83C394.158 209.83 394.718 209.266 394.718 208.571L394.718 208.353C394.718 207.658 394.158 207.095 393.467 207.095L393.25 207.095C392.56 207.095 392 207.658 392 208.353L392 208.571C392 209.266 392.56 209.83 393.25 209.83L393.467 209.83Z" fill="url(#paint129_linear_7080_71)"/>
<path d="M481.009 121.062C481.009 121.757 480.449 122.32 479.759 122.32L479.542 122.32C478.851 122.32 478.291 121.757 478.291 121.062L478.291 120.844C478.291 120.149 478.851 119.585 479.542 119.585L479.759 119.585C480.449 119.585 481.009 120.149 481.009 120.844L481.009 121.062Z" fill="url(#paint130_linear_7080_71)"/>
<path d="M436.613 122.32C437.304 122.32 437.864 121.757 437.864 121.062L437.864 120.844C437.864 120.149 437.304 119.585 436.613 119.585L436.396 119.585C435.706 119.585 435.146 120.149 435.146 120.844L435.146 121.062C435.146 121.757 435.706 122.32 436.396 122.32L436.613 122.32Z" fill="url(#paint131_linear_7080_71)"/>
<path d="M394.718 121.062C394.718 121.757 394.158 122.32 393.467 122.32L393.25 122.32C392.56 122.32 392 121.757 392 121.062L392 120.844C392 120.149 392.56 119.585 393.25 119.585L393.467 119.585C394.158 119.585 394.718 120.149 394.718 120.844L394.718 121.062Z" fill="url(#paint132_linear_7080_71)"/>
<path d="M479.759 180.66C480.449 180.66 481.009 180.097 481.009 179.402L481.009 179.183C481.009 178.488 480.449 177.925 479.759 177.925L479.542 177.925C478.851 177.925 478.291 178.488 478.291 179.183L478.291 179.402C478.291 180.097 478.851 180.66 479.542 180.66L479.759 180.66Z" fill="url(#paint133_linear_7080_71)"/>
<path d="M437.864 179.402C437.864 180.096 437.304 180.66 436.613 180.66L436.396 180.66C435.706 180.66 435.146 180.096 435.146 179.402L435.146 179.183C435.146 178.488 435.706 177.925 436.396 177.925L436.613 177.925C437.304 177.925 437.864 178.488 437.864 179.183L437.864 179.402Z" fill="url(#paint134_linear_7080_71)"/>
<path d="M393.467 180.66C394.158 180.66 394.718 180.096 394.718 179.402L394.718 179.183C394.718 178.488 394.158 177.925 393.467 177.925L393.25 177.925C392.56 177.925 392 178.488 392 179.183L392 179.402C392 180.096 392.56 180.66 393.25 180.66L393.467 180.66Z" fill="url(#paint135_linear_7080_71)"/>
<path d="M479.759 224.415C480.449 224.415 481.009 223.852 481.009 223.157L481.009 222.939C481.009 222.244 480.449 221.68 479.759 221.68L479.542 221.68C478.851 221.68 478.291 222.244 478.291 222.939L478.291 223.157C478.291 223.852 478.851 224.415 479.542 224.415L479.759 224.415Z" fill="url(#paint136_linear_7080_71)"/>
<path d="M437.864 223.157C437.864 223.852 437.304 224.415 436.613 224.415L436.396 224.415C435.706 224.415 435.146 223.852 435.146 223.157L435.146 222.939C435.146 222.244 435.706 221.68 436.396 221.68L436.613 221.68C437.304 221.68 437.864 222.244 437.864 222.939L437.864 223.157Z" fill="url(#paint137_linear_7080_71)"/>
<path d="M393.467 224.415C394.158 224.415 394.718 223.852 394.718 223.157L394.718 222.939C394.718 222.244 394.158 221.68 393.467 221.68L393.25 221.68C392.56 221.68 392 222.244 392 222.939L392 223.157C392 223.852 392.56 224.415 393.25 224.415L393.467 224.415Z" fill="url(#paint138_linear_7080_71)"/>
<path d="M481.009 135.647C481.009 136.342 480.449 136.905 479.759 136.905L479.542 136.905C478.851 136.905 478.291 136.342 478.291 135.647L478.291 135.429C478.291 134.734 478.851 134.17 479.542 134.17L479.759 134.17C480.449 134.17 481.009 134.734 481.009 135.429L481.009 135.647Z" fill="url(#paint139_linear_7080_71)"/>
<path d="M436.613 136.905C437.304 136.905 437.864 136.342 437.864 135.647L437.864 135.429C437.864 134.734 437.304 134.17 436.613 134.17L436.396 134.17C435.706 134.17 435.146 134.734 435.146 135.429L435.146 135.647C435.146 136.342 435.706 136.905 436.396 136.905L436.613 136.905Z" fill="url(#paint140_linear_7080_71)"/>
<path d="M394.718 135.647C394.718 136.342 394.158 136.905 393.467 136.905L393.25 136.905C392.56 136.905 392 136.342 392 135.647L392 135.429C392 134.734 392.56 134.17 393.25 134.17L393.467 134.17C394.158 134.17 394.718 134.734 394.718 135.429L394.718 135.647Z" fill="url(#paint141_linear_7080_71)"/>
<path d="M479.759 195.245C480.449 195.245 481.009 194.682 481.009 193.987L481.009 193.769C481.009 193.074 480.449 192.51 479.759 192.51L479.542 192.51C478.851 192.51 478.291 193.074 478.291 193.769L478.291 193.987C478.291 194.682 478.851 195.245 479.542 195.245L479.759 195.245Z" fill="url(#paint142_linear_7080_71)"/>
<path d="M437.864 193.987C437.864 194.682 437.304 195.245 436.613 195.245L436.396 195.245C435.706 195.245 435.146 194.682 435.146 193.987L435.146 193.769C435.146 193.074 435.706 192.51 436.396 192.51L436.613 192.51C437.304 192.51 437.864 193.074 437.864 193.769L437.864 193.987Z" fill="url(#paint143_linear_7080_71)"/>
<path d="M393.467 195.245C394.158 195.245 394.718 194.682 394.718 193.987L394.718 193.769C394.718 193.074 394.158 192.51 393.467 192.51L393.25 192.51C392.56 192.51 392 193.074 392 193.769L392 193.987C392 194.682 392.56 195.245 393.25 195.245L393.467 195.245Z" fill="url(#paint144_linear_7080_71)"/>
<path d="M481.009 106.476C481.009 107.171 480.449 107.735 479.759 107.735L479.542 107.735C478.851 107.735 478.291 107.171 478.291 106.476L478.291 106.258C478.291 105.563 478.851 105 479.542 105L479.759 105C480.449 105 481.009 105.563 481.009 106.258L481.009 106.476Z" fill="url(#paint145_linear_7080_71)"/>
<path d="M436.613 107.735C437.304 107.735 437.864 107.171 437.864 106.476L437.864 106.258C437.864 105.563 437.304 105 436.613 105L436.396 105C435.706 105 435.146 105.563 435.146 106.258L435.146 106.476C435.146 107.171 435.706 107.735 436.396 107.735L436.613 107.735Z" fill="url(#paint146_linear_7080_71)"/>
<path d="M394.718 106.476C394.718 107.171 394.158 107.735 393.467 107.735L393.25 107.735C392.56 107.735 392 107.171 392 106.476L392 106.258C392 105.563 392.56 105 393.25 105L393.467 105C394.158 105 394.718 105.563 394.718 106.258L394.718 106.476Z" fill="url(#paint147_linear_7080_71)"/>
<path d="M479.759 166.075C480.449 166.075 481.009 165.512 481.009 164.817L481.009 164.598C481.009 163.904 480.449 163.34 479.759 163.34L479.542 163.34C478.851 163.34 478.291 163.904 478.291 164.598L478.291 164.817C478.291 165.512 478.851 166.075 479.542 166.075L479.759 166.075Z" fill="url(#paint148_linear_7080_71)"/>
<path d="M437.864 164.817C437.864 165.512 437.304 166.075 436.613 166.075L436.396 166.075C435.706 166.075 435.146 165.512 435.146 164.817L435.146 164.598C435.146 163.904 435.706 163.34 436.396 163.34L436.613 163.34C437.304 163.34 437.864 163.904 437.864 164.598L437.864 164.817Z" fill="url(#paint149_linear_7080_71)"/>
<path d="M393.467 166.075C394.158 166.075 394.718 165.512 394.718 164.817L394.718 164.598C394.718 163.904 394.158 163.34 393.467 163.34L393.25 163.34C392.56 163.34 392 163.904 392 164.598L392 164.817C392 165.512 392.56 166.075 393.25 166.075L393.467 166.075Z" fill="url(#paint150_linear_7080_71)"/>
<path d="M494.254 239C494.945 239 495.504 238.437 495.504 237.742L495.504 237.524C495.504 236.829 494.945 236.265 494.254 236.265L494.037 236.265C493.346 236.265 492.787 236.829 492.787 237.524L492.787 237.742C492.787 238.437 493.346 239 494.037 239L494.254 239Z" fill="url(#paint151_linear_7080_71)"/>
<path d="M452.359 237.742C452.359 238.437 451.799 239 451.108 239L450.891 239C450.201 239 449.641 238.437 449.641 237.742L449.641 237.524C449.641 236.829 450.201 236.265 450.891 236.265L451.108 236.265C451.799 236.265 452.359 236.829 452.359 237.524L452.359 237.742Z" fill="url(#paint152_linear_7080_71)"/>
<path d="M407.963 239C408.653 239 409.213 238.437 409.213 237.742L409.213 237.524C409.213 236.829 408.653 236.265 407.963 236.265L407.746 236.265C407.055 236.265 406.495 236.829 406.495 237.524L406.495 237.742C406.495 238.437 407.055 239 407.746 239L407.963 239Z" fill="url(#paint153_linear_7080_71)"/>
<path d="M495.504 150.232C495.504 150.927 494.945 151.49 494.254 151.49L494.037 151.49C493.346 151.49 492.787 150.927 492.787 150.232L492.787 150.013C492.787 149.319 493.346 148.755 494.037 148.755L494.254 148.755C494.945 148.755 495.504 149.319 495.504 150.013L495.504 150.232Z" fill="url(#paint154_linear_7080_71)"/>
<path d="M451.108 151.49C451.799 151.49 452.359 150.927 452.359 150.232L452.359 150.013C452.359 149.319 451.799 148.755 451.108 148.755L450.891 148.755C450.201 148.755 449.641 149.319 449.641 150.013L449.641 150.232C449.641 150.927 450.201 151.49 450.891 151.49L451.108 151.49Z" fill="url(#paint155_linear_7080_71)"/>
<path d="M409.213 150.232C409.213 150.927 408.653 151.49 407.963 151.49L407.746 151.49C407.055 151.49 406.495 150.927 406.495 150.232L406.495 150.013C406.495 149.319 407.055 148.755 407.746 148.755L407.963 148.755C408.653 148.755 409.213 149.319 409.213 150.013L409.213 150.232Z" fill="url(#paint156_linear_7080_71)"/>
<path d="M494.254 209.83C494.945 209.83 495.504 209.266 495.504 208.571L495.504 208.353C495.504 207.658 494.945 207.095 494.254 207.095L494.037 207.095C493.346 207.095 492.787 207.658 492.787 208.353L492.787 208.571C492.787 209.266 493.346 209.83 494.037 209.83L494.254 209.83Z" fill="url(#paint157_linear_7080_71)"/>
<path d="M452.359 208.571C452.359 209.266 451.799 209.83 451.108 209.83L450.891 209.83C450.201 209.83 449.641 209.266 449.641 208.571L449.641 208.353C449.641 207.658 450.201 207.095 450.891 207.095L451.108 207.095C451.799 207.095 452.359 207.658 452.359 208.353L452.359 208.571Z" fill="url(#paint158_linear_7080_71)"/>
<path d="M407.963 209.83C408.653 209.83 409.213 209.266 409.213 208.571L409.213 208.353C409.213 207.658 408.653 207.095 407.963 207.095L407.746 207.095C407.055 207.095 406.495 207.658 406.495 208.353L406.495 208.571C406.495 209.266 407.055 209.83 407.746 209.83L407.963 209.83Z" fill="url(#paint159_linear_7080_71)"/>
<path d="M495.504 121.062C495.504 121.757 494.945 122.32 494.254 122.32L494.037 122.32C493.346 122.32 492.787 121.757 492.787 121.062L492.787 120.844C492.787 120.149 493.346 119.585 494.037 119.585L494.254 119.585C494.945 119.585 495.504 120.149 495.504 120.844L495.504 121.062Z" fill="url(#paint160_linear_7080_71)"/>
<path d="M451.108 122.32C451.799 122.32 452.359 121.757 452.359 121.062L452.359 120.844C452.359 120.149 451.799 119.585 451.108 119.585L450.891 119.585C450.201 119.585 449.641 120.149 449.641 120.844L449.641 121.062C449.641 121.757 450.201 122.32 450.891 122.32L451.108 122.32Z" fill="url(#paint161_linear_7080_71)"/>
<path d="M409.213 121.062C409.213 121.757 408.653 122.32 407.963 122.32L407.746 122.32C407.055 122.32 406.495 121.757 406.495 121.062L406.495 120.844C406.495 120.149 407.055 119.585 407.746 119.585L407.963 119.585C408.653 119.585 409.213 120.149 409.213 120.844L409.213 121.062Z" fill="url(#paint162_linear_7080_71)"/>
<path d="M494.254 180.66C494.945 180.66 495.504 180.097 495.504 179.402L495.504 179.183C495.504 178.488 494.945 177.925 494.254 177.925L494.037 177.925C493.346 177.925 492.787 178.488 492.787 179.183L492.787 179.402C492.787 180.097 493.346 180.66 494.037 180.66L494.254 180.66Z" fill="url(#paint163_linear_7080_71)"/>
<path d="M452.359 179.402C452.359 180.096 451.799 180.66 451.108 180.66L450.891 180.66C450.201 180.66 449.641 180.096 449.641 179.402L449.641 179.183C449.641 178.488 450.201 177.925 450.891 177.925L451.108 177.925C451.799 177.925 452.359 178.488 452.359 179.183L452.359 179.402Z" fill="url(#paint164_linear_7080_71)"/>
<path d="M407.963 180.66C408.653 180.66 409.213 180.096 409.213 179.402L409.213 179.183C409.213 178.488 408.653 177.925 407.963 177.925L407.746 177.925C407.055 177.925 406.495 178.488 406.495 179.183L406.495 179.402C406.495 180.096 407.055 180.66 407.746 180.66L407.963 180.66Z" fill="url(#paint165_linear_7080_71)"/>
<path d="M494.254 224.415C494.945 224.415 495.504 223.852 495.504 223.157L495.504 222.939C495.504 222.244 494.945 221.68 494.254 221.68L494.037 221.68C493.346 221.68 492.787 222.244 492.787 222.939L492.787 223.157C492.787 223.852 493.346 224.415 494.037 224.415L494.254 224.415Z" fill="url(#paint166_linear_7080_71)"/>
<path d="M452.359 223.157C452.359 223.852 451.799 224.415 451.108 224.415L450.891 224.415C450.201 224.415 449.641 223.852 449.641 223.157L449.641 222.939C449.641 222.244 450.201 221.68 450.891 221.68L451.108 221.68C451.799 221.68 452.359 222.244 452.359 222.939L452.359 223.157Z" fill="url(#paint167_linear_7080_71)"/>
<path d="M407.963 224.415C408.653 224.415 409.213 223.852 409.213 223.157L409.213 222.939C409.213 222.244 408.653 221.68 407.963 221.68L407.746 221.68C407.055 221.68 406.495 222.244 406.495 222.939L406.495 223.157C406.495 223.852 407.055 224.415 407.746 224.415L407.963 224.415Z" fill="url(#paint168_linear_7080_71)"/>
<path d="M495.504 135.647C495.504 136.342 494.945 136.905 494.254 136.905L494.037 136.905C493.346 136.905 492.787 136.342 492.787 135.647L492.787 135.429C492.787 134.734 493.346 134.17 494.037 134.17L494.254 134.17C494.945 134.17 495.504 134.734 495.504 135.429L495.504 135.647Z" fill="url(#paint169_linear_7080_71)"/>
<path d="M451.108 136.905C451.799 136.905 452.359 136.342 452.359 135.647L452.359 135.429C452.359 134.734 451.799 134.17 451.108 134.17L450.891 134.17C450.201 134.17 449.641 134.734 449.641 135.429L449.641 135.647C449.641 136.342 450.201 136.905 450.891 136.905L451.108 136.905Z" fill="url(#paint170_linear_7080_71)"/>
<path d="M409.213 135.647C409.213 136.342 408.653 136.905 407.963 136.905L407.746 136.905C407.055 136.905 406.495 136.342 406.495 135.647L406.495 135.429C406.495 134.734 407.055 134.17 407.746 134.17L407.963 134.17C408.653 134.17 409.213 134.734 409.213 135.429L409.213 135.647Z" fill="url(#paint171_linear_7080_71)"/>
<path d="M494.254 195.245C494.945 195.245 495.504 194.682 495.504 193.987L495.504 193.769C495.504 193.074 494.945 192.51 494.254 192.51L494.037 192.51C493.346 192.51 492.787 193.074 492.787 193.769L492.787 193.987C492.787 194.682 493.346 195.245 494.037 195.245L494.254 195.245Z" fill="url(#paint172_linear_7080_71)"/>
<path d="M452.359 193.987C452.359 194.682 451.799 195.245 451.108 195.245L450.891 195.245C450.201 195.245 449.641 194.682 449.641 193.987L449.641 193.769C449.641 193.074 450.201 192.51 450.891 192.51L451.108 192.51C451.799 192.51 452.359 193.074 452.359 193.769L452.359 193.987Z" fill="url(#paint173_linear_7080_71)"/>
<path d="M407.963 195.245C408.653 195.245 409.213 194.682 409.213 193.987L409.213 193.769C409.213 193.074 408.653 192.51 407.963 192.51L407.746 192.51C407.055 192.51 406.495 193.074 406.495 193.769L406.495 193.987C406.495 194.682 407.055 195.245 407.746 195.245L407.963 195.245Z" fill="url(#paint174_linear_7080_71)"/>
<path d="M495.504 106.476C495.504 107.171 494.945 107.735 494.254 107.735L494.037 107.735C493.346 107.735 492.787 107.171 492.787 106.476L492.787 106.258C492.787 105.563 493.346 105 494.037 105L494.254 105C494.945 105 495.504 105.563 495.504 106.258L495.504 106.476Z" fill="url(#paint175_linear_7080_71)"/>
<path d="M451.108 107.735C451.799 107.735 452.359 107.171 452.359 106.476L452.359 106.258C452.359 105.563 451.799 105 451.108 105L450.891 105C450.201 105 449.641 105.563 449.641 106.258L449.641 106.476C449.641 107.171 450.201 107.735 450.891 107.735L451.108 107.735Z" fill="url(#paint176_linear_7080_71)"/>
<path d="M409.213 106.476C409.213 107.171 408.653 107.735 407.963 107.735L407.746 107.735C407.055 107.735 406.495 107.171 406.495 106.476L406.495 106.258C406.495 105.563 407.055 105 407.746 105L407.963 105C408.653 105 409.213 105.563 409.213 106.258L409.213 106.476Z" fill="url(#paint177_linear_7080_71)"/>
<path d="M494.254 166.075C494.945 166.075 495.504 165.512 495.504 164.817L495.504 164.598C495.504 163.904 494.945 163.34 494.254 163.34L494.037 163.34C493.346 163.34 492.787 163.904 492.787 164.598L492.787 164.817C492.787 165.512 493.346 166.075 494.037 166.075L494.254 166.075Z" fill="url(#paint178_linear_7080_71)"/>
<path d="M452.359 164.817C452.359 165.512 451.799 166.075 451.108 166.075L450.891 166.075C450.201 166.075 449.641 165.512 449.641 164.817L449.641 164.598C449.641 163.904 450.201 163.34 450.891 163.34L451.108 163.34C451.799 163.34 452.359 163.904 452.359 164.598L452.359 164.817Z" fill="url(#paint179_linear_7080_71)"/>
<path d="M407.963 166.075C408.653 166.075 409.213 165.512 409.213 164.817L409.213 164.598C409.213 163.904 408.653 163.34 407.963 163.34L407.746 163.34C407.055 163.34 406.495 163.904 406.495 164.598L406.495 164.817C406.495 165.512 407.055 166.075 407.746 166.075L407.963 166.075Z" fill="url(#paint180_linear_7080_71)"/>
<defs>
<linearGradient id="paint0_linear_7080_71" x1="-613.239" y1="682.778" x2="1351.18" y2="850.377" gradientUnits="userSpaceOnUse">
<stop stop-color="#41B5D9"/>
<stop offset="1" stop-color="#41B5D9" stop-opacity="0"/>
</linearGradient>
<linearGradient id="paint1_linear_7080_71" x1="-20.6261" y1="413.858" x2="146.275" y2="289.084" gradientUnits="userSpaceOnUse">
<stop stop-color="#99F3F5"/>
<stop offset="1" stop-color="#99F3F5" stop-opacity="0"/>
</linearGradient>
<linearGradient id="paint2_linear_7080_71" x1="-20.6261" y1="413.858" x2="146.275" y2="289.084" gradientUnits="userSpaceOnUse">
<stop stop-color="#99F3F5"/>
<stop offset="1" stop-color="#99F3F5" stop-opacity="0"/>
</linearGradient>
<linearGradient id="paint3_linear_7080_71" x1="-20.6261" y1="413.858" x2="146.275" y2="289.084" gradientUnits="userSpaceOnUse">
<stop stop-color="#99F3F5"/>
<stop offset="1" stop-color="#99F3F5" stop-opacity="0"/>
</linearGradient>
<linearGradient id="paint4_linear_7080_71" x1="-20.6261" y1="413.858" x2="146.275" y2="289.084" gradientUnits="userSpaceOnUse">
<stop stop-color="#99F3F5"/>
<stop offset="1" stop-color="#99F3F5" stop-opacity="0"/>
</linearGradient>
<linearGradient id="paint5_linear_7080_71" x1="-20.6261" y1="413.858" x2="146.275" y2="289.084" gradientUnits="userSpaceOnUse">
<stop stop-color="#99F3F5"/>
<stop offset="1" stop-color="#99F3F5" stop-opacity="0"/>
</linearGradient>
<linearGradient id="paint6_linear_7080_71" x1="-20.6261" y1="413.858" x2="146.275" y2="289.084" gradientUnits="userSpaceOnUse">
<stop stop-color="#99F3F5"/>
<stop offset="1" stop-color="#99F3F5" stop-opacity="0"/>
</linearGradient>
<linearGradient id="paint7_linear_7080_71" x1="-20.6261" y1="413.858" x2="146.275" y2="289.084" gradientUnits="userSpaceOnUse">
<stop stop-color="#99F3F5"/>
<stop offset="1" stop-color="#99F3F5" stop-opacity="0"/>
</linearGradient>
<linearGradient id="paint8_linear_7080_71" x1="-20.6261" y1="413.858" x2="146.275" y2="289.084" gradientUnits="userSpaceOnUse">
<stop stop-color="#99F3F5"/>
<stop offset="1" stop-color="#99F3F5" stop-opacity="0"/>
</linearGradient>
<linearGradient id="paint9_linear_7080_71" x1="-20.6261" y1="413.858" x2="146.275" y2="289.084" gradientUnits="userSpaceOnUse">
<stop stop-color="#99F3F5"/>
<stop offset="1" stop-color="#99F3F5" stop-opacity="0"/>
</linearGradient>
<linearGradient id="paint10_linear_7080_71" x1="-20.6261" y1="413.858" x2="146.275" y2="289.084" gradientUnits="userSpaceOnUse">
<stop stop-color="#99F3F5"/>
<stop offset="1" stop-color="#99F3F5" stop-opacity="0"/>
</linearGradient>
<linearGradient id="paint11_linear_7080_71" x1="-20.6261" y1="413.858" x2="146.275" y2="289.084" gradientUnits="userSpaceOnUse">
<stop stop-color="#99F3F5"/>
<stop offset="1" stop-color="#99F3F5" stop-opacity="0"/>
</linearGradient>
<linearGradient id="paint12_linear_7080_71" x1="-20.6261" y1="413.858" x2="146.275" y2="289.084" gradientUnits="userSpaceOnUse">
<stop stop-color="#99F3F5"/>
<stop offset="1" stop-color="#99F3F5" stop-opacity="0"/>
</linearGradient>
<linearGradient id="paint13_linear_7080_71" x1="-20.6261" y1="413.858" x2="146.275" y2="289.084" gradientUnits="userSpaceOnUse">
<stop stop-color="#99F3F5"/>
<stop offset="1" stop-color="#99F3F5" stop-opacity="0"/>
</linearGradient>
<linearGradient id="paint14_linear_7080_71" x1="-20.6261" y1="413.858" x2="146.275" y2="289.084" gradientUnits="userSpaceOnUse">
<stop stop-color="#99F3F5"/>
<stop offset="1" stop-color="#99F3F5" stop-opacity="0"/>
</linearGradient>
<linearGradient id="paint15_linear_7080_71" x1="-20.6261" y1="413.858" x2="146.275" y2="289.084" gradientUnits="userSpaceOnUse">
<stop stop-color="#99F3F5"/>
<stop offset="1" stop-color="#99F3F5" stop-opacity="0"/>
</linearGradient>
<linearGradient id="paint16_linear_7080_71" x1="-20.6261" y1="413.858" x2="146.275" y2="289.084" gradientUnits="userSpaceOnUse">
<stop stop-color="#99F3F5"/>
<stop offset="1" stop-color="#99F3F5" stop-opacity="0"/>
</linearGradient>
<linearGradient id="paint17_linear_7080_71" x1="-20.6261" y1="413.858" x2="146.275" y2="289.084" gradientUnits="userSpaceOnUse">
<stop stop-color="#99F3F5"/>
<stop offset="1" stop-color="#99F3F5" stop-opacity="0"/>
</linearGradient>
<linearGradient id="paint18_linear_7080_71" x1="-20.6261" y1="413.858" x2="146.275" y2="289.084" gradientUnits="userSpaceOnUse">
<stop stop-color="#99F3F5"/>
<stop offset="1" stop-color="#99F3F5" stop-opacity="0"/>
</linearGradient>
<linearGradient id="paint19_linear_7080_71" x1="-20.6261" y1="413.858" x2="146.275" y2="289.084" gradientUnits="userSpaceOnUse">
<stop stop-color="#99F3F5"/>
<stop offset="1" stop-color="#99F3F5" stop-opacity="0"/>
</linearGradient>
<linearGradient id="paint20_linear_7080_71" x1="-20.6261" y1="413.858" x2="146.275" y2="289.084" gradientUnits="userSpaceOnUse">
<stop stop-color="#99F3F5"/>
<stop offset="1" stop-color="#99F3F5" stop-opacity="0"/>
</linearGradient>
<linearGradient id="paint21_linear_7080_71" x1="-20.6261" y1="413.858" x2="146.275" y2="289.084" gradientUnits="userSpaceOnUse">
<stop stop-color="#99F3F5"/>
<stop offset="1" stop-color="#99F3F5" stop-opacity="0"/>
</linearGradient>
<linearGradient id="paint22_linear_7080_71" x1="-20.6261" y1="413.858" x2="146.275" y2="289.084" gradientUnits="userSpaceOnUse">
<stop stop-color="#99F3F5"/>
<stop offset="1" stop-color="#99F3F5" stop-opacity="0"/>
</linearGradient>
<linearGradient id="paint23_linear_7080_71" x1="-20.6261" y1="413.858" x2="146.275" y2="289.084" gradientUnits="userSpaceOnUse">
<stop stop-color="#99F3F5"/>
<stop offset="1" stop-color="#99F3F5" stop-opacity="0"/>
</linearGradient>
<linearGradient id="paint24_linear_7080_71" x1="-20.6261" y1="413.858" x2="146.275" y2="289.084" gradientUnits="userSpaceOnUse">
<stop stop-color="#99F3F5"/>
<stop offset="1" stop-color="#99F3F5" stop-opacity="0"/>
</linearGradient>
<linearGradient id="paint25_linear_7080_71" x1="-20.6261" y1="413.858" x2="146.275" y2="289.084" gradientUnits="userSpaceOnUse">
<stop stop-color="#99F3F5"/>
<stop offset="1" stop-color="#99F3F5" stop-opacity="0"/>
</linearGradient>
<linearGradient id="paint26_linear_7080_71" x1="-20.6261" y1="413.858" x2="146.275" y2="289.084" gradientUnits="userSpaceOnUse">
<stop stop-color="#99F3F5"/>
<stop offset="1" stop-color="#99F3F5" stop-opacity="0"/>
</linearGradient>
<linearGradient id="paint27_linear_7080_71" x1="-20.6261" y1="413.858" x2="146.275" y2="289.084" gradientUnits="userSpaceOnUse">
<stop stop-color="#99F3F5"/>
<stop offset="1" stop-color="#99F3F5" stop-opacity="0"/>
</linearGradient>
<linearGradient id="paint28_linear_7080_71" x1="-20.6261" y1="413.858" x2="146.275" y2="289.084" gradientUnits="userSpaceOnUse">
<stop stop-color="#99F3F5"/>
<stop offset="1" stop-color="#99F3F5" stop-opacity="0"/>
</linearGradient>
<linearGradient id="paint29_linear_7080_71" x1="-20.6261" y1="413.858" x2="146.275" y2="289.084" gradientUnits="userSpaceOnUse">
<stop stop-color="#99F3F5"/>
<stop offset="1" stop-color="#99F3F5" stop-opacity="0"/>
</linearGradient>
<linearGradient id="paint30_linear_7080_71" x1="-20.6261" y1="413.858" x2="146.275" y2="289.084" gradientUnits="userSpaceOnUse">
<stop stop-color="#99F3F5"/>
<stop offset="1" stop-color="#99F3F5" stop-opacity="0"/>
</linearGradient>
<linearGradient id="paint31_linear_7080_71" x1="-20.6261" y1="413.858" x2="146.275" y2="289.084" gradientUnits="userSpaceOnUse">
<stop stop-color="#99F3F5"/>
<stop offset="1" stop-color="#99F3F5" stop-opacity="0"/>
</linearGradient>
<linearGradient id="paint32_linear_7080_71" x1="-20.6261" y1="413.858" x2="146.275" y2="289.084" gradientUnits="userSpaceOnUse">
<stop stop-color="#99F3F5"/>
<stop offset="1" stop-color="#99F3F5" stop-opacity="0"/>
</linearGradient>
<linearGradient id="paint33_linear_7080_71" x1="-20.6261" y1="413.858" x2="146.275" y2="289.084" gradientUnits="userSpaceOnUse">
<stop stop-color="#99F3F5"/>
<stop offset="1" stop-color="#99F3F5" stop-opacity="0"/>
</linearGradient>
<linearGradient id="paint34_linear_7080_71" x1="-20.6261" y1="413.858" x2="146.275" y2="289.084" gradientUnits="userSpaceOnUse">
<stop stop-color="#99F3F5"/>
<stop offset="1" stop-color="#99F3F5" stop-opacity="0"/>
</linearGradient>
<linearGradient id="paint35_linear_7080_71" x1="-20.6261" y1="413.858" x2="146.275" y2="289.084" gradientUnits="userSpaceOnUse">
<stop stop-color="#99F3F5"/>
<stop offset="1" stop-color="#99F3F5" stop-opacity="0"/>
</linearGradient>
<linearGradient id="paint36_linear_7080_71" x1="-20.6261" y1="413.858" x2="146.275" y2="289.084" gradientUnits="userSpaceOnUse">
<stop stop-color="#99F3F5"/>
<stop offset="1" stop-color="#99F3F5" stop-opacity="0"/>
</linearGradient>
<linearGradient id="paint37_linear_7080_71" x1="-20.6261" y1="413.858" x2="146.275" y2="289.084" gradientUnits="userSpaceOnUse">
<stop stop-color="#99F3F5"/>
<stop offset="1" stop-color="#99F3F5" stop-opacity="0"/>
</linearGradient>
<linearGradient id="paint38_linear_7080_71" x1="-20.6261" y1="413.858" x2="146.275" y2="289.084" gradientUnits="userSpaceOnUse">
<stop stop-color="#99F3F5"/>
<stop offset="1" stop-color="#99F3F5" stop-opacity="0"/>
</linearGradient>
<linearGradient id="paint39_linear_7080_71" x1="-20.6261" y1="413.858" x2="146.275" y2="289.084" gradientUnits="userSpaceOnUse">
<stop stop-color="#99F3F5"/>
<stop offset="1" stop-color="#99F3F5" stop-opacity="0"/>
</linearGradient>
<linearGradient id="paint40_linear_7080_71" x1="-20.6261" y1="413.858" x2="146.275" y2="289.084" gradientUnits="userSpaceOnUse">
<stop stop-color="#99F3F5"/>
<stop offset="1" stop-color="#99F3F5" stop-opacity="0"/>
</linearGradient>
<linearGradient id="paint41_linear_7080_71" x1="-20.6261" y1="413.858" x2="146.275" y2="289.084" gradientUnits="userSpaceOnUse">
<stop stop-color="#99F3F5"/>
<stop offset="1" stop-color="#99F3F5" stop-opacity="0"/>
</linearGradient>
<linearGradient id="paint42_linear_7080_71" x1="-20.6261" y1="413.858" x2="146.275" y2="289.084" gradientUnits="userSpaceOnUse">
<stop stop-color="#99F3F5"/>
<stop offset="1" stop-color="#99F3F5" stop-opacity="0"/>
</linearGradient>
<linearGradient id="paint43_linear_7080_71" x1="-20.6261" y1="413.858" x2="146.275" y2="289.084" gradientUnits="userSpaceOnUse">
<stop stop-color="#99F3F5"/>
<stop offset="1" stop-color="#99F3F5" stop-opacity="0"/>
</linearGradient>
<linearGradient id="paint44_linear_7080_71" x1="-20.6261" y1="413.858" x2="146.275" y2="289.084" gradientUnits="userSpaceOnUse">
<stop stop-color="#99F3F5"/>
<stop offset="1" stop-color="#99F3F5" stop-opacity="0"/>
</linearGradient>
<linearGradient id="paint45_linear_7080_71" x1="-20.6261" y1="413.858" x2="146.275" y2="289.084" gradientUnits="userSpaceOnUse">
<stop stop-color="#99F3F5"/>
<stop offset="1" stop-color="#99F3F5" stop-opacity="0"/>
</linearGradient>
<linearGradient id="paint46_linear_7080_71" x1="-20.6261" y1="413.858" x2="146.275" y2="289.084" gradientUnits="userSpaceOnUse">
<stop stop-color="#99F3F5"/>
<stop offset="1" stop-color="#99F3F5" stop-opacity="0"/>
</linearGradient>
<linearGradient id="paint47_linear_7080_71" x1="-20.6261" y1="413.858" x2="146.275" y2="289.084" gradientUnits="userSpaceOnUse">
<stop stop-color="#99F3F5"/>
<stop offset="1" stop-color="#99F3F5" stop-opacity="0"/>
</linearGradient>
<linearGradient id="paint48_linear_7080_71" x1="-20.6261" y1="413.858" x2="146.275" y2="289.084" gradientUnits="userSpaceOnUse">
<stop stop-color="#99F3F5"/>
<stop offset="1" stop-color="#99F3F5" stop-opacity="0"/>
</linearGradient>
<linearGradient id="paint49_linear_7080_71" x1="-20.6261" y1="413.858" x2="146.275" y2="289.084" gradientUnits="userSpaceOnUse">
<stop stop-color="#99F3F5"/>
<stop offset="1" stop-color="#99F3F5" stop-opacity="0"/>
</linearGradient>
<linearGradient id="paint50_linear_7080_71" x1="-20.6261" y1="413.858" x2="146.275" y2="289.084" gradientUnits="userSpaceOnUse">
<stop stop-color="#99F3F5"/>
<stop offset="1" stop-color="#99F3F5" stop-opacity="0"/>
</linearGradient>
<linearGradient id="paint51_linear_7080_71" x1="-20.6261" y1="413.858" x2="146.275" y2="289.084" gradientUnits="userSpaceOnUse">
<stop stop-color="#99F3F5"/>
<stop offset="1" stop-color="#99F3F5" stop-opacity="0"/>
</linearGradient>
<linearGradient id="paint52_linear_7080_71" x1="-20.6261" y1="413.858" x2="146.275" y2="289.084" gradientUnits="userSpaceOnUse">
<stop stop-color="#99F3F5"/>
<stop offset="1" stop-color="#99F3F5" stop-opacity="0"/>
</linearGradient>
<linearGradient id="paint53_linear_7080_71" x1="-20.6261" y1="413.858" x2="146.275" y2="289.084" gradientUnits="userSpaceOnUse">
<stop stop-color="#99F3F5"/>
<stop offset="1" stop-color="#99F3F5" stop-opacity="0"/>
</linearGradient>
<linearGradient id="paint54_linear_7080_71" x1="-20.6261" y1="413.858" x2="146.275" y2="289.084" gradientUnits="userSpaceOnUse">
<stop stop-color="#99F3F5"/>
<stop offset="1" stop-color="#99F3F5" stop-opacity="0"/>
</linearGradient>
<linearGradient id="paint55_linear_7080_71" x1="-20.6261" y1="413.858" x2="146.275" y2="289.084" gradientUnits="userSpaceOnUse">
<stop stop-color="#99F3F5"/>
<stop offset="1" stop-color="#99F3F5" stop-opacity="0"/>
</linearGradient>
<linearGradient id="paint56_linear_7080_71" x1="-20.6261" y1="413.858" x2="146.275" y2="289.084" gradientUnits="userSpaceOnUse">
<stop stop-color="#99F3F5"/>
<stop offset="1" stop-color="#99F3F5" stop-opacity="0"/>
</linearGradient>
<linearGradient id="paint57_linear_7080_71" x1="-20.6261" y1="413.858" x2="146.275" y2="289.084" gradientUnits="userSpaceOnUse">
<stop stop-color="#99F3F5"/>
<stop offset="1" stop-color="#99F3F5" stop-opacity="0"/>
</linearGradient>
<linearGradient id="paint58_linear_7080_71" x1="-20.6261" y1="413.858" x2="146.275" y2="289.084" gradientUnits="userSpaceOnUse">
<stop stop-color="#99F3F5"/>
<stop offset="1" stop-color="#99F3F5" stop-opacity="0"/>
</linearGradient>
<linearGradient id="paint59_linear_7080_71" x1="-20.6261" y1="413.858" x2="146.275" y2="289.084" gradientUnits="userSpaceOnUse">
<stop stop-color="#99F3F5"/>
<stop offset="1" stop-color="#99F3F5" stop-opacity="0"/>
</linearGradient>
<linearGradient id="paint60_linear_7080_71" x1="-20.6261" y1="413.858" x2="146.275" y2="289.084" gradientUnits="userSpaceOnUse">
<stop stop-color="#99F3F5"/>
<stop offset="1" stop-color="#99F3F5" stop-opacity="0"/>
</linearGradient>
<linearGradient id="paint61_linear_7080_71" x1="-20.6261" y1="413.858" x2="146.275" y2="289.084" gradientUnits="userSpaceOnUse">
<stop stop-color="#99F3F5"/>
<stop offset="1" stop-color="#99F3F5" stop-opacity="0"/>
</linearGradient>
<linearGradient id="paint62_linear_7080_71" x1="-20.6261" y1="413.858" x2="146.275" y2="289.084" gradientUnits="userSpaceOnUse">
<stop stop-color="#99F3F5"/>
<stop offset="1" stop-color="#99F3F5" stop-opacity="0"/>
</linearGradient>
<linearGradient id="paint63_linear_7080_71" x1="-20.6261" y1="413.858" x2="146.275" y2="289.084" gradientUnits="userSpaceOnUse">
<stop stop-color="#99F3F5"/>
<stop offset="1" stop-color="#99F3F5" stop-opacity="0"/>
</linearGradient>
<linearGradient id="paint64_linear_7080_71" x1="-20.6261" y1="413.858" x2="146.275" y2="289.084" gradientUnits="userSpaceOnUse">
<stop stop-color="#99F3F5"/>
<stop offset="1" stop-color="#99F3F5" stop-opacity="0"/>
</linearGradient>
<linearGradient id="paint65_linear_7080_71" x1="-20.6261" y1="413.858" x2="146.275" y2="289.084" gradientUnits="userSpaceOnUse">
<stop stop-color="#99F3F5"/>
<stop offset="1" stop-color="#99F3F5" stop-opacity="0"/>
</linearGradient>
<linearGradient id="paint66_linear_7080_71" x1="-20.6261" y1="413.858" x2="146.275" y2="289.084" gradientUnits="userSpaceOnUse">
<stop stop-color="#99F3F5"/>
<stop offset="1" stop-color="#99F3F5" stop-opacity="0"/>
</linearGradient>
<linearGradient id="paint67_linear_7080_71" x1="-20.6261" y1="413.858" x2="146.275" y2="289.084" gradientUnits="userSpaceOnUse">
<stop stop-color="#99F3F5"/>
<stop offset="1" stop-color="#99F3F5" stop-opacity="0"/>
</linearGradient>
<linearGradient id="paint68_linear_7080_71" x1="-20.6261" y1="413.858" x2="146.275" y2="289.084" gradientUnits="userSpaceOnUse">
<stop stop-color="#99F3F5"/>
<stop offset="1" stop-color="#99F3F5" stop-opacity="0"/>
</linearGradient>
<linearGradient id="paint69_linear_7080_71" x1="-20.6261" y1="413.858" x2="146.275" y2="289.084" gradientUnits="userSpaceOnUse">
<stop stop-color="#99F3F5"/>
<stop offset="1" stop-color="#99F3F5" stop-opacity="0"/>
</linearGradient>
<linearGradient id="paint70_linear_7080_71" x1="-20.6261" y1="413.858" x2="146.275" y2="289.084" gradientUnits="userSpaceOnUse">
<stop stop-color="#99F3F5"/>
<stop offset="1" stop-color="#99F3F5" stop-opacity="0"/>
</linearGradient>
<linearGradient id="paint71_linear_7080_71" x1="-20.6261" y1="413.858" x2="146.275" y2="289.084" gradientUnits="userSpaceOnUse">
<stop stop-color="#99F3F5"/>
<stop offset="1" stop-color="#99F3F5" stop-opacity="0"/>
</linearGradient>
<linearGradient id="paint72_linear_7080_71" x1="-20.6261" y1="413.858" x2="146.275" y2="289.084" gradientUnits="userSpaceOnUse">
<stop stop-color="#99F3F5"/>
<stop offset="1" stop-color="#99F3F5" stop-opacity="0"/>
</linearGradient>
<linearGradient id="paint73_linear_7080_71" x1="-20.6261" y1="413.858" x2="146.275" y2="289.084" gradientUnits="userSpaceOnUse">
<stop stop-color="#99F3F5"/>
<stop offset="1" stop-color="#99F3F5" stop-opacity="0"/>
</linearGradient>
<linearGradient id="paint74_linear_7080_71" x1="-20.6261" y1="413.858" x2="146.275" y2="289.084" gradientUnits="userSpaceOnUse">
<stop stop-color="#99F3F5"/>
<stop offset="1" stop-color="#99F3F5" stop-opacity="0"/>
</linearGradient>
<linearGradient id="paint75_linear_7080_71" x1="-20.6261" y1="413.858" x2="146.275" y2="289.084" gradientUnits="userSpaceOnUse">
<stop stop-color="#99F3F5"/>
<stop offset="1" stop-color="#99F3F5" stop-opacity="0"/>
</linearGradient>
<linearGradient id="paint76_linear_7080_71" x1="-20.6261" y1="413.858" x2="146.275" y2="289.084" gradientUnits="userSpaceOnUse">
<stop stop-color="#99F3F5"/>
<stop offset="1" stop-color="#99F3F5" stop-opacity="0"/>
</linearGradient>
<linearGradient id="paint77_linear_7080_71" x1="-20.6261" y1="413.858" x2="146.275" y2="289.084" gradientUnits="userSpaceOnUse">
<stop stop-color="#99F3F5"/>
<stop offset="1" stop-color="#99F3F5" stop-opacity="0"/>
</linearGradient>
<linearGradient id="paint78_linear_7080_71" x1="-20.6261" y1="413.858" x2="146.275" y2="289.084" gradientUnits="userSpaceOnUse">
<stop stop-color="#99F3F5"/>
<stop offset="1" stop-color="#99F3F5" stop-opacity="0"/>
</linearGradient>
<linearGradient id="paint79_linear_7080_71" x1="-20.6261" y1="413.858" x2="146.275" y2="289.084" gradientUnits="userSpaceOnUse">
<stop stop-color="#99F3F5"/>
<stop offset="1" stop-color="#99F3F5" stop-opacity="0"/>
</linearGradient>
<linearGradient id="paint80_linear_7080_71" x1="-20.6261" y1="413.858" x2="146.275" y2="289.084" gradientUnits="userSpaceOnUse">
<stop stop-color="#99F3F5"/>
<stop offset="1" stop-color="#99F3F5" stop-opacity="0"/>
</linearGradient>
<linearGradient id="paint81_linear_7080_71" x1="-20.6261" y1="413.858" x2="146.275" y2="289.084" gradientUnits="userSpaceOnUse">
<stop stop-color="#99F3F5"/>
<stop offset="1" stop-color="#99F3F5" stop-opacity="0"/>
</linearGradient>
<linearGradient id="paint82_linear_7080_71" x1="-20.6261" y1="413.858" x2="146.275" y2="289.084" gradientUnits="userSpaceOnUse">
<stop stop-color="#99F3F5"/>
<stop offset="1" stop-color="#99F3F5" stop-opacity="0"/>
</linearGradient>
<linearGradient id="paint83_linear_7080_71" x1="-20.6261" y1="413.858" x2="146.275" y2="289.084" gradientUnits="userSpaceOnUse">
<stop stop-color="#99F3F5"/>
<stop offset="1" stop-color="#99F3F5" stop-opacity="0"/>
</linearGradient>
<linearGradient id="paint84_linear_7080_71" x1="-20.6261" y1="413.858" x2="146.275" y2="289.084" gradientUnits="userSpaceOnUse">
<stop stop-color="#99F3F5"/>
<stop offset="1" stop-color="#99F3F5" stop-opacity="0"/>
</linearGradient>
<linearGradient id="paint85_linear_7080_71" x1="-20.6261" y1="413.858" x2="146.275" y2="289.084" gradientUnits="userSpaceOnUse">
<stop stop-color="#99F3F5"/>
<stop offset="1" stop-color="#99F3F5" stop-opacity="0"/>
</linearGradient>
<linearGradient id="paint86_linear_7080_71" x1="-20.6261" y1="413.858" x2="146.275" y2="289.084" gradientUnits="userSpaceOnUse">
<stop stop-color="#99F3F5"/>
<stop offset="1" stop-color="#99F3F5" stop-opacity="0"/>
</linearGradient>
<linearGradient id="paint87_linear_7080_71" x1="-20.6261" y1="413.858" x2="146.275" y2="289.084" gradientUnits="userSpaceOnUse">
<stop stop-color="#99F3F5"/>
<stop offset="1" stop-color="#99F3F5" stop-opacity="0"/>
</linearGradient>
<linearGradient id="paint88_linear_7080_71" x1="-20.6261" y1="413.858" x2="146.275" y2="289.084" gradientUnits="userSpaceOnUse">
<stop stop-color="#99F3F5"/>
<stop offset="1" stop-color="#99F3F5" stop-opacity="0"/>
</linearGradient>
<linearGradient id="paint89_linear_7080_71" x1="-20.6261" y1="413.858" x2="146.275" y2="289.084" gradientUnits="userSpaceOnUse">
<stop stop-color="#99F3F5"/>
<stop offset="1" stop-color="#99F3F5" stop-opacity="0"/>
</linearGradient>
<linearGradient id="paint90_linear_7080_71" x1="-20.6261" y1="413.858" x2="146.275" y2="289.084" gradientUnits="userSpaceOnUse">
<stop stop-color="#99F3F5"/>
<stop offset="1" stop-color="#99F3F5" stop-opacity="0"/>
</linearGradient>
<linearGradient id="paint91_linear_7080_71" x1="521.287" y1="68.9231" x2="428.426" y2="184.472" gradientUnits="userSpaceOnUse">
<stop stop-color="#99F3F5"/>
<stop offset="1" stop-color="#99F3F5" stop-opacity="0"/>
</linearGradient>
<linearGradient id="paint92_linear_7080_71" x1="521.287" y1="68.9231" x2="428.426" y2="184.472" gradientUnits="userSpaceOnUse">
<stop stop-color="#99F3F5"/>
<stop offset="1" stop-color="#99F3F5" stop-opacity="0"/>
</linearGradient>
<linearGradient id="paint93_linear_7080_71" x1="521.287" y1="68.9231" x2="428.426" y2="184.472" gradientUnits="userSpaceOnUse">
<stop stop-color="#99F3F5"/>
<stop offset="1" stop-color="#99F3F5" stop-opacity="0"/>
</linearGradient>
<linearGradient id="paint94_linear_7080_71" x1="521.287" y1="68.9231" x2="428.426" y2="184.472" gradientUnits="userSpaceOnUse">
<stop stop-color="#99F3F5"/>
<stop offset="1" stop-color="#99F3F5" stop-opacity="0"/>
</linearGradient>
<linearGradient id="paint95_linear_7080_71" x1="521.287" y1="68.9231" x2="428.426" y2="184.472" gradientUnits="userSpaceOnUse">
<stop stop-color="#99F3F5"/>
<stop offset="1" stop-color="#99F3F5" stop-opacity="0"/>
</linearGradient>
<linearGradient id="paint96_linear_7080_71" x1="521.287" y1="68.9231" x2="428.426" y2="184.472" gradientUnits="userSpaceOnUse">
<stop stop-color="#99F3F5"/>
<stop offset="1" stop-color="#99F3F5" stop-opacity="0"/>
</linearGradient>
<linearGradient id="paint97_linear_7080_71" x1="521.287" y1="68.9231" x2="428.426" y2="184.472" gradientUnits="userSpaceOnUse">
<stop stop-color="#99F3F5"/>
<stop offset="1" stop-color="#99F3F5" stop-opacity="0"/>
</linearGradient>
<linearGradient id="paint98_linear_7080_71" x1="521.287" y1="68.9231" x2="428.426" y2="184.472" gradientUnits="userSpaceOnUse">
<stop stop-color="#99F3F5"/>
<stop offset="1" stop-color="#99F3F5" stop-opacity="0"/>
</linearGradient>
<linearGradient id="paint99_linear_7080_71" x1="521.287" y1="68.9231" x2="428.426" y2="184.472" gradientUnits="userSpaceOnUse">
<stop stop-color="#99F3F5"/>
<stop offset="1" stop-color="#99F3F5" stop-opacity="0"/>
</linearGradient>
<linearGradient id="paint100_linear_7080_71" x1="521.287" y1="68.9231" x2="428.426" y2="184.472" gradientUnits="userSpaceOnUse">
<stop stop-color="#99F3F5"/>
<stop offset="1" stop-color="#99F3F5" stop-opacity="0"/>
</linearGradient>
<linearGradient id="paint101_linear_7080_71" x1="521.287" y1="68.9231" x2="428.426" y2="184.472" gradientUnits="userSpaceOnUse">
<stop stop-color="#99F3F5"/>
<stop offset="1" stop-color="#99F3F5" stop-opacity="0"/>
</linearGradient>
<linearGradient id="paint102_linear_7080_71" x1="521.287" y1="68.9231" x2="428.426" y2="184.472" gradientUnits="userSpaceOnUse">
<stop stop-color="#99F3F5"/>
<stop offset="1" stop-color="#99F3F5" stop-opacity="0"/>
</linearGradient>
<linearGradient id="paint103_linear_7080_71" x1="521.287" y1="68.9231" x2="428.426" y2="184.472" gradientUnits="userSpaceOnUse">
<stop stop-color="#99F3F5"/>
<stop offset="1" stop-color="#99F3F5" stop-opacity="0"/>
</linearGradient>
<linearGradient id="paint104_linear_7080_71" x1="521.287" y1="68.9231" x2="428.426" y2="184.472" gradientUnits="userSpaceOnUse">
<stop stop-color="#99F3F5"/>
<stop offset="1" stop-color="#99F3F5" stop-opacity="0"/>
</linearGradient>
<linearGradient id="paint105_linear_7080_71" x1="521.287" y1="68.9231" x2="428.426" y2="184.472" gradientUnits="userSpaceOnUse">
<stop stop-color="#99F3F5"/>
<stop offset="1" stop-color="#99F3F5" stop-opacity="0"/>
</linearGradient>
<linearGradient id="paint106_linear_7080_71" x1="521.287" y1="68.9231" x2="428.426" y2="184.472" gradientUnits="userSpaceOnUse">
<stop stop-color="#99F3F5"/>
<stop offset="1" stop-color="#99F3F5" stop-opacity="0"/>
</linearGradient>
<linearGradient id="paint107_linear_7080_71" x1="521.287" y1="68.9231" x2="428.426" y2="184.472" gradientUnits="userSpaceOnUse">
<stop stop-color="#99F3F5"/>
<stop offset="1" stop-color="#99F3F5" stop-opacity="0"/>
</linearGradient>
<linearGradient id="paint108_linear_7080_71" x1="521.287" y1="68.9231" x2="428.426" y2="184.472" gradientUnits="userSpaceOnUse">
<stop stop-color="#99F3F5"/>
<stop offset="1" stop-color="#99F3F5" stop-opacity="0"/>
</linearGradient>
<linearGradient id="paint109_linear_7080_71" x1="521.287" y1="68.9231" x2="428.426" y2="184.472" gradientUnits="userSpaceOnUse">
<stop stop-color="#99F3F5"/>
<stop offset="1" stop-color="#99F3F5" stop-opacity="0"/>
</linearGradient>
<linearGradient id="paint110_linear_7080_71" x1="521.287" y1="68.9231" x2="428.426" y2="184.472" gradientUnits="userSpaceOnUse">
<stop stop-color="#99F3F5"/>
<stop offset="1" stop-color="#99F3F5" stop-opacity="0"/>
</linearGradient>
<linearGradient id="paint111_linear_7080_71" x1="521.287" y1="68.9231" x2="428.426" y2="184.472" gradientUnits="userSpaceOnUse">
<stop stop-color="#99F3F5"/>
<stop offset="1" stop-color="#99F3F5" stop-opacity="0"/>
</linearGradient>
<linearGradient id="paint112_linear_7080_71" x1="521.287" y1="68.9231" x2="428.426" y2="184.472" gradientUnits="userSpaceOnUse">
<stop stop-color="#99F3F5"/>
<stop offset="1" stop-color="#99F3F5" stop-opacity="0"/>
</linearGradient>
<linearGradient id="paint113_linear_7080_71" x1="521.287" y1="68.9231" x2="428.426" y2="184.472" gradientUnits="userSpaceOnUse">
<stop stop-color="#99F3F5"/>
<stop offset="1" stop-color="#99F3F5" stop-opacity="0"/>
</linearGradient>
<linearGradient id="paint114_linear_7080_71" x1="521.287" y1="68.9231" x2="428.426" y2="184.472" gradientUnits="userSpaceOnUse">
<stop stop-color="#99F3F5"/>
<stop offset="1" stop-color="#99F3F5" stop-opacity="0"/>
</linearGradient>
<linearGradient id="paint115_linear_7080_71" x1="521.287" y1="68.9231" x2="428.426" y2="184.472" gradientUnits="userSpaceOnUse">
<stop stop-color="#99F3F5"/>
<stop offset="1" stop-color="#99F3F5" stop-opacity="0"/>
</linearGradient>
<linearGradient id="paint116_linear_7080_71" x1="521.287" y1="68.9231" x2="428.426" y2="184.472" gradientUnits="userSpaceOnUse">
<stop stop-color="#99F3F5"/>
<stop offset="1" stop-color="#99F3F5" stop-opacity="0"/>
</linearGradient>
<linearGradient id="paint117_linear_7080_71" x1="521.287" y1="68.9231" x2="428.426" y2="184.472" gradientUnits="userSpaceOnUse">
<stop stop-color="#99F3F5"/>
<stop offset="1" stop-color="#99F3F5" stop-opacity="0"/>
</linearGradient>
<linearGradient id="paint118_linear_7080_71" x1="521.287" y1="68.9231" x2="428.426" y2="184.472" gradientUnits="userSpaceOnUse">
<stop stop-color="#99F3F5"/>
<stop offset="1" stop-color="#99F3F5" stop-opacity="0"/>
</linearGradient>
<linearGradient id="paint119_linear_7080_71" x1="521.287" y1="68.9231" x2="428.426" y2="184.472" gradientUnits="userSpaceOnUse">
<stop stop-color="#99F3F5"/>
<stop offset="1" stop-color="#99F3F5" stop-opacity="0"/>
</linearGradient>
<linearGradient id="paint120_linear_7080_71" x1="521.287" y1="68.9231" x2="428.426" y2="184.472" gradientUnits="userSpaceOnUse">
<stop stop-color="#99F3F5"/>
<stop offset="1" stop-color="#99F3F5" stop-opacity="0"/>
</linearGradient>
<linearGradient id="paint121_linear_7080_71" x1="521.287" y1="68.9231" x2="428.426" y2="184.472" gradientUnits="userSpaceOnUse">
<stop stop-color="#99F3F5"/>
<stop offset="1" stop-color="#99F3F5" stop-opacity="0"/>
</linearGradient>
<linearGradient id="paint122_linear_7080_71" x1="521.287" y1="68.9231" x2="428.426" y2="184.472" gradientUnits="userSpaceOnUse">
<stop stop-color="#99F3F5"/>
<stop offset="1" stop-color="#99F3F5" stop-opacity="0"/>
</linearGradient>
<linearGradient id="paint123_linear_7080_71" x1="521.287" y1="68.9231" x2="428.426" y2="184.472" gradientUnits="userSpaceOnUse">
<stop stop-color="#99F3F5"/>
<stop offset="1" stop-color="#99F3F5" stop-opacity="0"/>
</linearGradient>
<linearGradient id="paint124_linear_7080_71" x1="521.287" y1="68.9231" x2="428.426" y2="184.472" gradientUnits="userSpaceOnUse">
<stop stop-color="#99F3F5"/>
<stop offset="1" stop-color="#99F3F5" stop-opacity="0"/>
</linearGradient>
<linearGradient id="paint125_linear_7080_71" x1="521.287" y1="68.9231" x2="428.426" y2="184.472" gradientUnits="userSpaceOnUse">
<stop stop-color="#99F3F5"/>
<stop offset="1" stop-color="#99F3F5" stop-opacity="0"/>
</linearGradient>
<linearGradient id="paint126_linear_7080_71" x1="521.287" y1="68.9231" x2="428.426" y2="184.472" gradientUnits="userSpaceOnUse">
<stop stop-color="#99F3F5"/>
<stop offset="1" stop-color="#99F3F5" stop-opacity="0"/>
</linearGradient>
<linearGradient id="paint127_linear_7080_71" x1="521.287" y1="68.9231" x2="428.426" y2="184.472" gradientUnits="userSpaceOnUse">
<stop stop-color="#99F3F5"/>
<stop offset="1" stop-color="#99F3F5" stop-opacity="0"/>
</linearGradient>
<linearGradient id="paint128_linear_7080_71" x1="521.287" y1="68.9231" x2="428.426" y2="184.472" gradientUnits="userSpaceOnUse">
<stop stop-color="#99F3F5"/>
<stop offset="1" stop-color="#99F3F5" stop-opacity="0"/>
</linearGradient>
<linearGradient id="paint129_linear_7080_71" x1="521.287" y1="68.9231" x2="428.426" y2="184.472" gradientUnits="userSpaceOnUse">
<stop stop-color="#99F3F5"/>
<stop offset="1" stop-color="#99F3F5" stop-opacity="0"/>
</linearGradient>
<linearGradient id="paint130_linear_7080_71" x1="521.287" y1="68.9231" x2="428.426" y2="184.472" gradientUnits="userSpaceOnUse">
<stop stop-color="#99F3F5"/>
<stop offset="1" stop-color="#99F3F5" stop-opacity="0"/>
</linearGradient>
<linearGradient id="paint131_linear_7080_71" x1="521.287" y1="68.9231" x2="428.426" y2="184.472" gradientUnits="userSpaceOnUse">
<stop stop-color="#99F3F5"/>
<stop offset="1" stop-color="#99F3F5" stop-opacity="0"/>
</linearGradient>
<linearGradient id="paint132_linear_7080_71" x1="521.287" y1="68.9231" x2="428.426" y2="184.472" gradientUnits="userSpaceOnUse">
<stop stop-color="#99F3F5"/>
<stop offset="1" stop-color="#99F3F5" stop-opacity="0"/>
</linearGradient>
<linearGradient id="paint133_linear_7080_71" x1="521.287" y1="68.9231" x2="428.426" y2="184.472" gradientUnits="userSpaceOnUse">
<stop stop-color="#99F3F5"/>
<stop offset="1" stop-color="#99F3F5" stop-opacity="0"/>
</linearGradient>
<linearGradient id="paint134_linear_7080_71" x1="521.287" y1="68.9231" x2="428.426" y2="184.472" gradientUnits="userSpaceOnUse">
<stop stop-color="#99F3F5"/>
<stop offset="1" stop-color="#99F3F5" stop-opacity="0"/>
</linearGradient>
<linearGradient id="paint135_linear_7080_71" x1="521.287" y1="68.9231" x2="428.426" y2="184.472" gradientUnits="userSpaceOnUse">
<stop stop-color="#99F3F5"/>
<stop offset="1" stop-color="#99F3F5" stop-opacity="0"/>
</linearGradient>
<linearGradient id="paint136_linear_7080_71" x1="521.287" y1="68.9231" x2="428.426" y2="184.472" gradientUnits="userSpaceOnUse">
<stop stop-color="#99F3F5"/>
<stop offset="1" stop-color="#99F3F5" stop-opacity="0"/>
</linearGradient>
<linearGradient id="paint137_linear_7080_71" x1="521.287" y1="68.9231" x2="428.426" y2="184.472" gradientUnits="userSpaceOnUse">
<stop stop-color="#99F3F5"/>
<stop offset="1" stop-color="#99F3F5" stop-opacity="0"/>
</linearGradient>
<linearGradient id="paint138_linear_7080_71" x1="521.287" y1="68.9231" x2="428.426" y2="184.472" gradientUnits="userSpaceOnUse">
<stop stop-color="#99F3F5"/>
<stop offset="1" stop-color="#99F3F5" stop-opacity="0"/>
</linearGradient>
<linearGradient id="paint139_linear_7080_71" x1="521.287" y1="68.9231" x2="428.426" y2="184.472" gradientUnits="userSpaceOnUse">
<stop stop-color="#99F3F5"/>
<stop offset="1" stop-color="#99F3F5" stop-opacity="0"/>
</linearGradient>
<linearGradient id="paint140_linear_7080_71" x1="521.287" y1="68.9231" x2="428.426" y2="184.472" gradientUnits="userSpaceOnUse">
<stop stop-color="#99F3F5"/>
<stop offset="1" stop-color="#99F3F5" stop-opacity="0"/>
</linearGradient>
<linearGradient id="paint141_linear_7080_71" x1="521.287" y1="68.9231" x2="428.426" y2="184.472" gradientUnits="userSpaceOnUse">
<stop stop-color="#99F3F5"/>
<stop offset="1" stop-color="#99F3F5" stop-opacity="0"/>
</linearGradient>
<linearGradient id="paint142_linear_7080_71" x1="521.287" y1="68.9231" x2="428.426" y2="184.472" gradientUnits="userSpaceOnUse">
<stop stop-color="#99F3F5"/>
<stop offset="1" stop-color="#99F3F5" stop-opacity="0"/>
</linearGradient>
<linearGradient id="paint143_linear_7080_71" x1="521.287" y1="68.9231" x2="428.426" y2="184.472" gradientUnits="userSpaceOnUse">
<stop stop-color="#99F3F5"/>
<stop offset="1" stop-color="#99F3F5" stop-opacity="0"/>
</linearGradient>
<linearGradient id="paint144_linear_7080_71" x1="521.287" y1="68.9231" x2="428.426" y2="184.472" gradientUnits="userSpaceOnUse">
<stop stop-color="#99F3F5"/>
<stop offset="1" stop-color="#99F3F5" stop-opacity="0"/>
</linearGradient>
<linearGradient id="paint145_linear_7080_71" x1="521.287" y1="68.9231" x2="428.426" y2="184.472" gradientUnits="userSpaceOnUse">
<stop stop-color="#99F3F5"/>
<stop offset="1" stop-color="#99F3F5" stop-opacity="0"/>
</linearGradient>
<linearGradient id="paint146_linear_7080_71" x1="521.287" y1="68.9231" x2="428.426" y2="184.472" gradientUnits="userSpaceOnUse">
<stop stop-color="#99F3F5"/>
<stop offset="1" stop-color="#99F3F5" stop-opacity="0"/>
</linearGradient>
<linearGradient id="paint147_linear_7080_71" x1="521.287" y1="68.9231" x2="428.426" y2="184.472" gradientUnits="userSpaceOnUse">
<stop stop-color="#99F3F5"/>
<stop offset="1" stop-color="#99F3F5" stop-opacity="0"/>
</linearGradient>
<linearGradient id="paint148_linear_7080_71" x1="521.287" y1="68.9231" x2="428.426" y2="184.472" gradientUnits="userSpaceOnUse">
<stop stop-color="#99F3F5"/>
<stop offset="1" stop-color="#99F3F5" stop-opacity="0"/>
</linearGradient>
<linearGradient id="paint149_linear_7080_71" x1="521.287" y1="68.9231" x2="428.426" y2="184.472" gradientUnits="userSpaceOnUse">
<stop stop-color="#99F3F5"/>
<stop offset="1" stop-color="#99F3F5" stop-opacity="0"/>
</linearGradient>
<linearGradient id="paint150_linear_7080_71" x1="521.287" y1="68.9231" x2="428.426" y2="184.472" gradientUnits="userSpaceOnUse">
<stop stop-color="#99F3F5"/>
<stop offset="1" stop-color="#99F3F5" stop-opacity="0"/>
</linearGradient>
<linearGradient id="paint151_linear_7080_71" x1="521.287" y1="68.9231" x2="428.426" y2="184.472" gradientUnits="userSpaceOnUse">
<stop stop-color="#99F3F5"/>
<stop offset="1" stop-color="#99F3F5" stop-opacity="0"/>
</linearGradient>
<linearGradient id="paint152_linear_7080_71" x1="521.287" y1="68.9231" x2="428.426" y2="184.472" gradientUnits="userSpaceOnUse">
<stop stop-color="#99F3F5"/>
<stop offset="1" stop-color="#99F3F5" stop-opacity="0"/>
</linearGradient>
<linearGradient id="paint153_linear_7080_71" x1="521.287" y1="68.9231" x2="428.426" y2="184.472" gradientUnits="userSpaceOnUse">
<stop stop-color="#99F3F5"/>
<stop offset="1" stop-color="#99F3F5" stop-opacity="0"/>
</linearGradient>
<linearGradient id="paint154_linear_7080_71" x1="521.287" y1="68.9231" x2="428.426" y2="184.472" gradientUnits="userSpaceOnUse">
<stop stop-color="#99F3F5"/>
<stop offset="1" stop-color="#99F3F5" stop-opacity="0"/>
</linearGradient>
<linearGradient id="paint155_linear_7080_71" x1="521.287" y1="68.9231" x2="428.426" y2="184.472" gradientUnits="userSpaceOnUse">
<stop stop-color="#99F3F5"/>
<stop offset="1" stop-color="#99F3F5" stop-opacity="0"/>
</linearGradient>
<linearGradient id="paint156_linear_7080_71" x1="521.287" y1="68.9231" x2="428.426" y2="184.472" gradientUnits="userSpaceOnUse">
<stop stop-color="#99F3F5"/>
<stop offset="1" stop-color="#99F3F5" stop-opacity="0"/>
</linearGradient>
<linearGradient id="paint157_linear_7080_71" x1="521.287" y1="68.9231" x2="428.426" y2="184.472" gradientUnits="userSpaceOnUse">
<stop stop-color="#99F3F5"/>
<stop offset="1" stop-color="#99F3F5" stop-opacity="0"/>
</linearGradient>
<linearGradient id="paint158_linear_7080_71" x1="521.287" y1="68.9231" x2="428.426" y2="184.472" gradientUnits="userSpaceOnUse">
<stop stop-color="#99F3F5"/>
<stop offset="1" stop-color="#99F3F5" stop-opacity="0"/>
</linearGradient>
<linearGradient id="paint159_linear_7080_71" x1="521.287" y1="68.9231" x2="428.426" y2="184.472" gradientUnits="userSpaceOnUse">
<stop stop-color="#99F3F5"/>
<stop offset="1" stop-color="#99F3F5" stop-opacity="0"/>
</linearGradient>
<linearGradient id="paint160_linear_7080_71" x1="521.287" y1="68.9231" x2="428.426" y2="184.472" gradientUnits="userSpaceOnUse">
<stop stop-color="#99F3F5"/>
<stop offset="1" stop-color="#99F3F5" stop-opacity="0"/>
</linearGradient>
<linearGradient id="paint161_linear_7080_71" x1="521.287" y1="68.9231" x2="428.426" y2="184.472" gradientUnits="userSpaceOnUse">
<stop stop-color="#99F3F5"/>
<stop offset="1" stop-color="#99F3F5" stop-opacity="0"/>
</linearGradient>
<linearGradient id="paint162_linear_7080_71" x1="521.287" y1="68.9231" x2="428.426" y2="184.472" gradientUnits="userSpaceOnUse">
<stop stop-color="#99F3F5"/>
<stop offset="1" stop-color="#99F3F5" stop-opacity="0"/>
</linearGradient>
<linearGradient id="paint163_linear_7080_71" x1="521.287" y1="68.9231" x2="428.426" y2="184.472" gradientUnits="userSpaceOnUse">
<stop stop-color="#99F3F5"/>
<stop offset="1" stop-color="#99F3F5" stop-opacity="0"/>
</linearGradient>
<linearGradient id="paint164_linear_7080_71" x1="521.287" y1="68.9231" x2="428.426" y2="184.472" gradientUnits="userSpaceOnUse">
<stop stop-color="#99F3F5"/>
<stop offset="1" stop-color="#99F3F5" stop-opacity="0"/>
</linearGradient>
<linearGradient id="paint165_linear_7080_71" x1="521.287" y1="68.9231" x2="428.426" y2="184.472" gradientUnits="userSpaceOnUse">
<stop stop-color="#99F3F5"/>
<stop offset="1" stop-color="#99F3F5" stop-opacity="0"/>
</linearGradient>
<linearGradient id="paint166_linear_7080_71" x1="521.287" y1="68.9231" x2="428.426" y2="184.472" gradientUnits="userSpaceOnUse">
<stop stop-color="#99F3F5"/>
<stop offset="1" stop-color="#99F3F5" stop-opacity="0"/>
</linearGradient>
<linearGradient id="paint167_linear_7080_71" x1="521.287" y1="68.9231" x2="428.426" y2="184.472" gradientUnits="userSpaceOnUse">
<stop stop-color="#99F3F5"/>
<stop offset="1" stop-color="#99F3F5" stop-opacity="0"/>
</linearGradient>
<linearGradient id="paint168_linear_7080_71" x1="521.287" y1="68.9231" x2="428.426" y2="184.472" gradientUnits="userSpaceOnUse">
<stop stop-color="#99F3F5"/>
<stop offset="1" stop-color="#99F3F5" stop-opacity="0"/>
</linearGradient>
<linearGradient id="paint169_linear_7080_71" x1="521.287" y1="68.9231" x2="428.426" y2="184.472" gradientUnits="userSpaceOnUse">
<stop stop-color="#99F3F5"/>
<stop offset="1" stop-color="#99F3F5" stop-opacity="0"/>
</linearGradient>
<linearGradient id="paint170_linear_7080_71" x1="521.287" y1="68.9231" x2="428.426" y2="184.472" gradientUnits="userSpaceOnUse">
<stop stop-color="#99F3F5"/>
<stop offset="1" stop-color="#99F3F5" stop-opacity="0"/>
</linearGradient>
<linearGradient id="paint171_linear_7080_71" x1="521.287" y1="68.9231" x2="428.426" y2="184.472" gradientUnits="userSpaceOnUse">
<stop stop-color="#99F3F5"/>
<stop offset="1" stop-color="#99F3F5" stop-opacity="0"/>
</linearGradient>
<linearGradient id="paint172_linear_7080_71" x1="521.287" y1="68.9231" x2="428.426" y2="184.472" gradientUnits="userSpaceOnUse">
<stop stop-color="#99F3F5"/>
<stop offset="1" stop-color="#99F3F5" stop-opacity="0"/>
</linearGradient>
<linearGradient id="paint173_linear_7080_71" x1="521.287" y1="68.9231" x2="428.426" y2="184.472" gradientUnits="userSpaceOnUse">
<stop stop-color="#99F3F5"/>
<stop offset="1" stop-color="#99F3F5" stop-opacity="0"/>
</linearGradient>
<linearGradient id="paint174_linear_7080_71" x1="521.287" y1="68.9231" x2="428.426" y2="184.472" gradientUnits="userSpaceOnUse">
<stop stop-color="#99F3F5"/>
<stop offset="1" stop-color="#99F3F5" stop-opacity="0"/>
</linearGradient>
<linearGradient id="paint175_linear_7080_71" x1="521.287" y1="68.9231" x2="428.426" y2="184.472" gradientUnits="userSpaceOnUse">
<stop stop-color="#99F3F5"/>
<stop offset="1" stop-color="#99F3F5" stop-opacity="0"/>
</linearGradient>
<linearGradient id="paint176_linear_7080_71" x1="521.287" y1="68.9231" x2="428.426" y2="184.472" gradientUnits="userSpaceOnUse">
<stop stop-color="#99F3F5"/>
<stop offset="1" stop-color="#99F3F5" stop-opacity="0"/>
</linearGradient>
<linearGradient id="paint177_linear_7080_71" x1="521.287" y1="68.9231" x2="428.426" y2="184.472" gradientUnits="userSpaceOnUse">
<stop stop-color="#99F3F5"/>
<stop offset="1" stop-color="#99F3F5" stop-opacity="0"/>
</linearGradient>
<linearGradient id="paint178_linear_7080_71" x1="521.287" y1="68.9231" x2="428.426" y2="184.472" gradientUnits="userSpaceOnUse">
<stop stop-color="#99F3F5"/>
<stop offset="1" stop-color="#99F3F5" stop-opacity="0"/>
</linearGradient>
<linearGradient id="paint179_linear_7080_71" x1="521.287" y1="68.9231" x2="428.426" y2="184.472" gradientUnits="userSpaceOnUse">
<stop stop-color="#99F3F5"/>
<stop offset="1" stop-color="#99F3F5" stop-opacity="0"/>
</linearGradient>
<linearGradient id="paint180_linear_7080_71" x1="521.287" y1="68.9231" x2="428.426" y2="184.472" gradientUnits="userSpaceOnUse">
<stop stop-color="#99F3F5"/>
<stop offset="1" stop-color="#99F3F5" stop-opacity="0"/>
</linearGradient>
</defs>
</svg>
